<?xml version="1.0" standalone="no"?>
<!DOCTYPE svg PUBLIC "-//W3C//DTD SVG 1.1//EN" "http://www.w3.org/Graphics/SVG/1.1/DTD/svg11.dtd" >
<svg xmlns="http://www.w3.org/2000/svg" xmlns:xlink="http://www.w3.org/1999/xlink" version="1.1">
<metadata>
Created by FontForge 20170731 at Tue Sep 20 20:42:31 2005
 By Aleksey,,,
(c) Copyright 2005 by Tong Duc Thinh. All Rights Reserved
</metadata>
<defs>
<font id="SFUEurostileExtendedTwo" horiz-adv-x="765" >
  <font-face 
    font-family="SFU Eurostile"
    font-weight="400"
    font-stretch="normal"
    units-per-em="1000"
    panose-1="0 0 4 0 0 0 0 0 0 0"
    ascent="800"
    descent="-200"
    x-height="510"
    cap-height="724"
    bbox="-221 -279 1326 1194"
    underline-thickness="50"
    underline-position="-175"
    unicode-range="U+0020-F002"
  />
<missing-glyph horiz-adv-x="500" 
d="M63 0v804h375v-804h-375zM125 63h250v679h-250v-679z" />
    <glyph glyph-name=".notdef" horiz-adv-x="500" 
d="M63 0v804h375v-804h-375zM125 63h250v679h-250v-679z" />
    <glyph glyph-name=".null" horiz-adv-x="0" 
 />
    <glyph glyph-name="nonmarkingreturn" horiz-adv-x="482" 
 />
    <glyph glyph-name="space" unicode=" " horiz-adv-x="482" 
 />
    <glyph glyph-name="exclam" unicode="!" horiz-adv-x="482" 
d="M185 0v124h112v-124h-112zM201 210v514h80v-514h-80z" />
    <glyph glyph-name="quotedbl" unicode="&#x22;" horiz-adv-x="334" 
d="M202 482v242h98v-242h-98zM34 482v242h98v-242h-98z" />
    <glyph glyph-name="numbersign" unicode="#" horiz-adv-x="964" 
d="M550 292l19 140h-154l-19 -140h154zM319 292l19 140h-92v70h101l30 222h77l-30 -222h154l30 222h77l-30 -222h92v-70h-101l-19 -140h92v-70h-101l-30 -222h-78l30 222h-153l-30 -222h-78l30 222h-92v70h102z" />
    <glyph glyph-name="dollar" unicode="$" horiz-adv-x="964" 
d="M519 72h101q108 0 147 28t39 106q0 68 -33.5 91t-126.5 23h-127v-248zM439 408v244h-23q-155 0 -200 -18q-58 -23 -58 -105q0 -71 33 -95q37 -26 149 -26h99zM439 72v248q-221 0 -291 35q-82 41 -82 175q0 118 74 163q65 39 226 39h73v47h80v-47h57q175 0 243 -47
q61 -42 61 -144v-25h-92q-1 65 -14 88q-17 29 -73 39q-51 9 -182 9v-244h108q143 0 207 -42.5t64 -135.5v-47q0 -120 -91 -162q-62 -29 -200 -29h-88v-50h-80v50h-103q-127 0 -188 32q-81 43 -81 151v53h92v-49q0 -56 35 -80q37 -27 127 -27h118z" />
    <glyph glyph-name="percent" unicode="%" horiz-adv-x="1333" 
d="M484 374v234q0 54 -68 54h-243q-68 0 -68 -54v-234q0 -53 68 -53h243q68 0 68 53zM507 -8l248 740h66l-247 -740h-67zM1228 115v234q0 54 -68 54h-243q-68 0 -68 -54v-234q0 -53 68 -53h243q68 0 68 53zM25 371v241q0 75 44 102q28 18 89 18h273q61 0 89 -18
q44 -27 44 -102v-241q0 -75 -44 -102q-28 -18 -89 -18h-273q-61 0 -89 18q-44 27 -44 102zM769 112v241q0 75 44 102q28 18 89 18h273q61 0 89 -18q44 -27 44 -102v-241q0 -75 -44 -102q-28 -18 -89 -18h-273q-61 0 -89 18q-44 27 -44 102z" />
    <glyph glyph-name="ampersand" unicode="&#x26;" horiz-adv-x="1087" 
d="M1053 0l-135 70q-52 -78 -239 -78h-350q-152 0 -209 57q-53 52 -53 181q0 105 35 149q39 49 142 49v2q-52 34 -64 56q-15 26 -15 100q0 146 162 146h353q188 0 188 -162v-60h-92v54q0 88 -95 88h-325q-54 0 -73.5 -18.5t-19.5 -57.5q0 -40 5 -54q6 -21 30 -33l558 -295
v162h92v-153q0 -22 -5 -52l146 -77zM828 113l-514 269h-30q-39 0 -69 -19q-50 -32 -50 -107v-49q0 -70 29 -99q37 -36 137 -36h335q147 0 162 41z" />
    <glyph glyph-name="quotesingle" unicode="'" horiz-adv-x="272" 
d="M87 482v242h98v-242h-98z" />
    <glyph glyph-name="parenleft" unicode="(" horiz-adv-x="370" 
d="M61 216v240q0 148 32 204q42 72 164 72h66v-80h-62q-60 0 -82 -27q-26 -32 -26 -128v-310q0 -64 23 -89.5t85 -25.5h62v-80h-66q-93 0 -136 37q-60 51 -60 187z" />
    <glyph glyph-name="parenright" unicode=")" horiz-adv-x="370" 
d="M47 -8v80h62q60 0 82 27q26 32 26 128v310q0 64 -23 89.5t-85 25.5h-62v80h66q93 0 136 -37q60 -51 60 -187v-240q0 -148 -32 -204q-42 -72 -164 -72h-66z" />
    <glyph glyph-name="asterisk" unicode="*" horiz-adv-x="592" 
d="M352 491v64l-56 32l-55 -32v-64l55 -32zM82 491v64h159l-80 137l56 32l79 -137l79 137l56 -32l-79 -137h158v-64h-158l79 -137l-56 -32l-79 137l-79 -137l-56 32l80 137h-159z" />
    <glyph glyph-name="plus" unicode="+" horiz-adv-x="600" 
d="M265 0v218h-218v70h218v218h70v-218h218v-70h-218v-218h-70z" />
    <glyph glyph-name="comma" unicode="," horiz-adv-x="482" 
d="M185 0v124h112v-127q0 -62 -29 -86.5t-94 -24.5v58q32 1 40.5 11.5t8.5 44.5h-38z" />
    <glyph glyph-name="hyphen" unicode="-" horiz-adv-x="444" 
d="M82 225v80h280v-80h-280z" />
    <glyph glyph-name="hyphen" unicode="&#x2010;" horiz-adv-x="444" 
d="M82 225v80h280v-80h-280z" />
    <glyph glyph-name="period" unicode="." horiz-adv-x="482" 
d="M185 0v124h112v-124h-112z" />
    <glyph glyph-name="slash" unicode="/" horiz-adv-x="370" 
d="M-45 -8l375 740h85l-376 -740h-84z" />
    <glyph glyph-name="zero" unicode="0" horiz-adv-x="964" 
d="M61 234v256q0 125 51 180q57 62 198 62h344q141 0 198 -62q51 -55 51 -180v-256q0 -125 -51 -180q-57 -62 -198 -62h-344q-141 0 -198 62q-51 55 -51 180zM811 280v164q0 140 -37 174t-183 34h-218q-146 0 -183 -34t-37 -174v-164q0 -140 37 -174t183 -34h218
q146 0 183 34t37 174z" />
    <glyph glyph-name="one" unicode="1" horiz-adv-x="964" 
d="M510 0v640l-271 -215l-50 63l298 236h115v-724h-92z" />
    <glyph glyph-name="two" unicode="2" horiz-adv-x="964" 
d="M73 0v128q0 114 59 160q52 42 182 51l322 23q100 7 129 38q24 25 24 100q0 84 -27 115q-32 37 -125 37h-304q-90 0 -121 -23q-44 -32 -44 -132v-40h-92v68q0 112 63 161q60 46 191 46h306q145 0 201 -65q44 -52 44 -172q0 -137 -66 -177q-52 -31 -245 -44l-150 -10
q-124 -8 -168 -17q-55 -10 -72 -33q-15 -19 -15 -70v-64h726v-80h-818z" />
    <glyph glyph-name="three" unicode="3" horiz-adv-x="964" 
d="M388 329v80h277q89 0 113 27q17 20 17 92q0 82 -30 103t-143 21h-280q-97 0 -135.5 -20.5t-38.5 -71.5v-52h-92v49q0 175 204 175h359q144 0 198 -44q50 -41 50 -142q0 -98 -19.5 -128t-93.5 -47v-2q70 -9 96 -38q29 -35 29 -128q0 -116 -36 -155q-52 -56 -226 -56h-307
q-147 0 -203 42t-56 145v46h92q0 -91 24 -119q29 -34 130 -34h279q145 0 176 18q35 20 35 113q0 83 -27 107q-20 19 -90 19h-302z" />
    <glyph glyph-name="four" unicode="4" horiz-adv-x="964" 
d="M49 152v114l595 458h134v-492h121v-80h-121v-152h-92v152h-637zM686 232v422l-545 -420v-2h545z" />
    <glyph glyph-name="five" unicode="5" horiz-adv-x="964" 
d="M89 338v386h779v-80h-687v-226h2q24 47 66 61t151 14h241q131 0 189 -43q64 -47 64 -163v-88q0 -110 -44 -152q-58 -55 -228 -55h-323q-126 0 -175 49t-49 165v15h92q0 -81 23 -110q31 -39 125 -39h277q141 0 178 34q32 28 32 134v33q0 80 -42 110t-153 30h-279
q-67 0 -96 -12q-39 -16 -55 -63h-88z" />
    <glyph glyph-name="six" unicode="6" horiz-adv-x="964" 
d="M413 72h134q152 0 191 18q54 26 54 128q0 67 -13 90q-15 29 -69 38q-45 7 -173 7h-140q-144 0 -187 -30q-38 -26 -38 -110q0 -98 57 -123q39 -18 184 -18zM783 510v44q0 48 -32 71q-38 27 -130 27h-297q-152 0 -152 -117v-196h2q31 94 170 94h334q106 0 156 -42.5
t50 -135.5v-68q0 -124 -84 -166q-59 -29 -208 -29h-244q-125 0 -182 32q-86 48 -86 179v339q0 102 78 151q61 39 152 39h295q154 0 216 -51q54 -44 54 -139v-32h-92z" />
    <glyph glyph-name="seven" unicode="7" horiz-adv-x="964" 
d="M248 0l562 644h-739v80h831v-109l-537 -615h-117z" />
    <glyph glyph-name="eight" unicode="8" horiz-adv-x="964" 
d="M388 72h188q151 0 188 24q34 23 34 113q0 84 -38 105q-31 18 -155 18h-246q-124 0 -155 -18q-38 -21 -38 -105q0 -90 35.5 -113.5t186.5 -23.5zM364 412h236q123 0 154 19q35 21 35 105q0 71 -31 93.5t-135 22.5h-282q-104 0 -135 -22.5t-31 -93.5q0 -84 35 -105
q31 -19 154 -19zM74 161v57q0 86 26.5 115t111.5 40v2q-129 17 -129 143v47q0 90 52.5 128.5t169.5 38.5h354q117 0 169.5 -38.5t52.5 -128.5v-47q0 -126 -122 -143v-2q131 -22 131 -141v-71q0 -92 -50.5 -130.5t-160.5 -38.5h-394q-110 0 -159 38q-52 39 -52 131z" />
    <glyph glyph-name="nine" unicode="9" horiz-adv-x="964" 
d="M427 371h140q144 0 187 30q38 26 38 110q0 98 -57 123q-39 18 -184 18h-134q-152 0 -191 -18q-54 -26 -54 -128q0 -67 13 -90q15 -29 69 -38q45 -7 173 -7zM89 182v32h92v-44q0 -48 32 -71q38 -27 130 -27h297q152 0 152 117v194h-2q-31 -92 -170 -92h-334
q-106 0 -156 42.5t-50 135.5v68q0 124 85 166q58 29 207 29h244q125 0 182 -32q86 -48 86 -179v-339q0 -102 -78 -151q-61 -39 -152 -39h-295q-154 0 -216 51q-54 44 -54 139z" />
    <glyph glyph-name="colon" unicode=":" horiz-adv-x="482" 
d="M185 0v124h112v-124h-112zM185 386v124h112v-124h-112z" />
    <glyph glyph-name="semicolon" unicode=";" horiz-adv-x="482" 
d="M185 0v124h112v-127q0 -62 -29 -86.5t-94 -24.5v58q30 -2 39.5 11t9.5 45h-38zM185 386v124h112v-124h-112z" />
    <glyph glyph-name="less" unicode="&#x3c;" horiz-adv-x="600" 
d="M47 215v76l506 223v-86l-397 -175l397 -175v-86z" />
    <glyph glyph-name="equal" unicode="=" horiz-adv-x="600" 
d="M47 322v70h506v-70h-506zM47 114v70h506v-70h-506z" />
    <glyph glyph-name="greater" unicode="&#x3e;" horiz-adv-x="600" 
d="M553 291v-76l-506 -223v86l397 175l-397 175v86z" />
    <glyph glyph-name="question" unicode="?" horiz-adv-x="791" 
d="M47 490v80q0 111 82 142q54 20 238 20q161 0 222 -10q81 -13 112 -56.5t31 -143.5q0 -115 -56 -155q-36 -26 -176 -50q-116 -20 -116 -74v-22h-80v19q0 78 39 106q34 24 168 49q89 17 110 36q25 23 25 102q0 62 -15 85q-18 27 -74 36q-48 8 -173 8q-158 0 -197 -13
q-54 -19 -54 -94v-65h-86zM288 0v124h112v-124h-112z" />
    <glyph glyph-name="at" unicode="@" horiz-adv-x="800" 
d="M285 319q0 -47 21.5 -74.5t58.5 -27.5q55 0 95 58q38 55 38 119q0 41 -23.5 68t-57.5 27q-55 0 -95 -56q-37 -52 -37 -114zM667 156h58q-49 -78 -129.5 -121t-174.5 -43q-163 0 -268 98q-111 103 -111 273q0 154 110 261.5t264 107.5q139 0 239 -84q103 -88 103 -220
q0 -128 -92 -212q-76 -69 -150 -69q-58 0 -58 58h-2q-53 -58 -113 -58q-56 0 -97 48t-41 112q0 97 57 172q61 80 149 80q79 0 115 -70l17 58h77l-69 -259q-7 -26 -7 -45q0 -26 18 -26q47 0 86.5 58t39.5 137q0 112 -80 178q-75 62 -193 62q-133 0 -218 -83.5t-85 -208.5
q0 -137 89 -223.5t225 -86.5q144 0 241 106z" />
    <glyph glyph-name="A" unicode="A" horiz-adv-x="1012" 
d="M15 0l430 724h122l430 -724h-111l-90 153h-580l-90 -153h-111zM749 233l-243 411l-243 -411h486z" />
    <glyph glyph-name="B" unicode="B" horiz-adv-x="1012" 
d="M836 177v52q0 63 -36 86q-29 18 -103 18h-503v-253h518q124 0 124 97zM808 502v66q0 39 -34 59q-28 17 -69 17h-511v-231h506q108 0 108 89zM96 0v724h618q192 0 192 -161v-62q0 -102 -117 -114v-4q145 -8 145 -143v-86q0 -73 -58.5 -113.5t-151.5 -40.5h-628z" />
    <glyph glyph-name="C" unicode="C" horiz-adv-x="1012" 
d="M77 263v198q0 142 56 204q59 67 202 67h375q227 0 227 -180v-62h-86v33q0 83 -49 111q-33 18 -117 18h-340q-80 0 -120 -30q-50 -37 -50 -124v-272q0 -87 50 -124q40 -30 120 -30h343q99 0 134.5 26.5t35.5 99.5v45h92v-49q0 -106 -46 -150q-55 -52 -199 -52h-370
q-143 0 -202 67q-56 62 -56 204z" />
    <glyph glyph-name="D" unicode="D" horiz-adv-x="1061" 
d="M886 323v74q0 148 -47 202q-40 45 -138 45h-513v-564h497q103 0 145 40q56 53 56 203zM90 0v724h585q182 0 245.5 -74t63.5 -288q0 -204 -64 -281q-67 -81 -248 -81h-582z" />
    <glyph glyph-name="E" unicode="E" horiz-adv-x="864" 
d="M96 0v724h711v-80h-613v-231h589v-80h-589v-253h617v-80h-715z" />
    <glyph glyph-name="F" unicode="F" horiz-adv-x="839" 
d="M96 0v724h690v-80h-592v-231h569v-80h-569v-333h-98z" />
    <glyph glyph-name="G" unicode="G" horiz-adv-x="1061" 
d="M984 359v-100q0 -148 -54.5 -207.5t-190.5 -59.5h-404q-143 0 -202 67q-56 62 -56 204v198q0 142 56 204q59 67 202 67h370q269 0 269 -199v-26h-92q0 70 -20.5 99t-81.5 38q-49 8 -181 8h-254q-80 0 -120 -30q-50 -37 -50 -124v-272q0 -87 50 -124q40 -30 120 -30h383
q158 0 158 134v73h-371v80h469z" />
    <glyph glyph-name="H" unicode="H" horiz-adv-x="1042" 
d="M96 0v724h98v-311h654v311h98v-724h-98v333h-654v-333h-98z" />
    <glyph glyph-name="I" unicode="I" horiz-adv-x="296" 
d="M99 0v724h98v-724h-98z" />
    <glyph glyph-name="J" unicode="J" horiz-adv-x="791" 
d="M26 187v80h92v-57q0 -85 29.5 -111.5t124.5 -26.5h171q89 0 122 21q38 24 38 91v540h98v-521q0 -122 -58 -168q-54 -43 -192 -43h-186q-128 0 -183.5 46t-55.5 149z" />
    <glyph glyph-name="K" unicode="K" horiz-adv-x="987" 
d="M96 0v724h98v-307h123l454 307h160l2 -2l-519 -346l566 -374l-2 -2h-172l-497 337h-115v-337h-98z" />
    <glyph glyph-name="L" unicode="L" 
d="M96 0v724h98v-644h562v-80h-660z" />
    <glyph glyph-name="M" unicode="M" horiz-adv-x="1332" 
d="M90 0v724h153l423 -607l423 607h153v-724h-98v636h-2l-441 -636h-70l-441 636h-2v-636h-98z" />
    <glyph glyph-name="N" unicode="N" horiz-adv-x="1087" 
d="M90 0v724h146l663 -636v636h98v-724h-146l-663 636v-636h-98z" />
    <glyph glyph-name="O" unicode="O" horiz-adv-x="1087" 
d="M912 226v272q0 87 -50 124q-40 30 -120 30h-397q-80 0 -120 -30q-50 -37 -50 -124v-272q0 -87 50 -124q40 -30 120 -30h397q80 0 120 30q50 37 50 124zM77 263v198q0 142 56 204q59 67 202 67h417q143 0 203 -67q55 -62 55 -204v-198q0 -142 -55 -204q-60 -67 -203 -67
h-417q-143 0 -202 67q-56 62 -56 204z" />
    <glyph glyph-name="P" unicode="P" horiz-adv-x="939" 
d="M96 0v724h596q109 0 153 -35q54 -43 54 -162q0 -137 -33 -181q-45 -61 -193 -61h-479v-285h-98zM801 468v69q0 61 -34 86q-30 21 -98 21h-475v-279h483q124 0 124 103z" />
    <glyph glyph-name="Q" unicode="Q" horiz-adv-x="1087" 
d="M1027 31l-64 40q-57 -79 -211 -79h-417q-143 0 -202 67q-56 62 -56 204v198q0 142 56 204q59 67 202 67h417q143 0 203 -67q55 -62 55 -204v-198q0 -67 -12 -117l73 -46zM912 201v297q0 87 -50 124q-40 30 -120 30h-397q-80 0 -120 -30q-50 -37 -50 -124v-272
q0 -87 50 -124q40 -30 120 -30h397q58 0 88.5 11t51.5 40l-290 184l44 69z" />
    <glyph glyph-name="R" unicode="R" horiz-adv-x="987" 
d="M90 0v724h579q148 0 199 -51q43 -43 43 -154v-59q0 -125 -133 -137v-2q124 -22 124 -136v-185h-92v159q0 79 -39 106q-29 21 -105 21h-478v-286h-98zM188 366h470q82 0 118.5 24t36.5 81v66q0 62 -35 84q-38 23 -144 23h-446v-278z" />
    <glyph glyph-name="S" unicode="S" horiz-adv-x="987" 
d="M78 175v53h92v-51q0 -55 35.5 -80t124.5 -25h304q107 0 145.5 28t38.5 106q0 68 -33 91t-125 23h-186q-239 0 -311 33q-86 40 -86 177q0 118 74 163q65 39 226 39h211q175 0 243 -47q61 -42 61 -144v-25h-92q-1 64 -14 86q-17 30 -71.5 40t-185.5 10h-104
q-153 0 -199 -20q-57 -24 -57 -109q0 -67 34.5 -91t145.5 -24h290q143 0 207 -42.5t64 -135.5v-47q0 -120 -91 -162q-62 -29 -200 -29h-272q-127 0 -188 32q-81 43 -81 151z" />
    <glyph glyph-name="T" unicode="T" horiz-adv-x="864" 
d="M383 0v644h-366v80h830v-80h-366v-644h-98z" />
    <glyph glyph-name="U" unicode="U" horiz-adv-x="1042" 
d="M96 182v542h98v-541q0 -58 29 -82q34 -29 128 -29h340q94 0 128 29q29 24 29 82v541h98v-542q0 -108 -58.5 -149t-199.5 -41h-334q-141 0 -198 40q-60 42 -60 150z" />
    <glyph glyph-name="V" unicode="V" horiz-adv-x="964" 
d="M422 0l-401 724h110l351 -636l351 636h110l-401 -724h-120z" />
    <glyph glyph-name="W" unicode="W" horiz-adv-x="1332" 
d="M294 0l-288 724h96l253 -633l248 633h126l245 -636l256 636h96l-288 -724h-126l-246 636l-246 -636h-126z" />
    <glyph glyph-name="X" unicode="X" horiz-adv-x="1012" 
d="M21 0l399 383l-354 341h139l301 -291l305 291h135l-354 -341l399 -383h-138l-347 336l-342 -336h-143z" />
    <glyph glyph-name="Y" unicode="Y" horiz-adv-x="964" 
d="M433 0v306l-415 418h132l332 -336l332 336h132l-415 -418v-306h-98z" />
    <glyph glyph-name="Z" unicode="Z" horiz-adv-x="913" 
d="M42 0v76l661 568h-640v80h794v-70l-664 -574h678v-80h-829z" />
    <glyph glyph-name="bracketleft" unicode="[" horiz-adv-x="370" 
d="M73 0v724h256v-80h-170v-564h170v-80h-256z" />
    <glyph glyph-name="backslash" unicode="\" horiz-adv-x="370" 
d="M331 -8l-376 740h85l375 -740h-84z" />
    <glyph glyph-name="bracketright" unicode="]" horiz-adv-x="370" 
d="M41 0v80h170v564h-170v80h256v-724h-256z" />
    <glyph glyph-name="asciicircum" unicode="^" horiz-adv-x="600" 
d="M60 320l199 404h82l199 -404h-80l-160 324l-160 -324h-80z" />
    <glyph glyph-name="underscore" unicode="_" horiz-adv-x="500" 
d="M0 -125v50h500v-50h-500z" />
    <glyph glyph-name="grave" unicode="`" horiz-adv-x="272" 
d="M153 588l-184 185h103l148 -185h-67z" />
    <glyph glyph-name="a" unicode="a" 
d="M608 0v51h-2q-18 -36 -50 -47q-36 -12 -132 -12h-206q-93 0 -131 41q-33 35 -33 112v34q0 81 60 109q47 21 172 21h138q85 0 122.5 -12.5t59.5 -48.5h2v96q0 65 -45 87q-38 17 -145 17h-126q-76 0 -105 -18q-24 -15 -24 -50v-18h-86v25q0 70 49 100.5t164 30.5h136
q136 0 194 -31q74 -39 74 -145v-342h-86zM608 137v23q0 57 -73 73q-28 6 -121 6h-132q-84 0 -113 -16t-29 -64v-16q0 -45 25 -62q29 -19 113 -19h114q123 0 167 14q49 15 49 61z" />
    <glyph glyph-name="b" unicode="b" horiz-adv-x="791" 
d="M647 208v100q0 84 -44 114q-38 26 -133 26h-116q-97 0 -137 -25q-50 -32 -50 -117v-97q0 -73 37 -108q40 -39 132 -39h140q100 0 138 36q33 31 33 110zM81 0v724h86v-282h2q26 76 163 76h131q154 0 212 -48.5t58 -172.5v-90q0 -123 -74 -173q-61 -42 -191 -42h-120
q-149 0 -185 89h-2v-81h-80z" />
    <glyph glyph-name="c" unicode="c" horiz-adv-x="741" 
d="M58 198v114q0 125 81 172q57 34 175 34h144q223 0 223 -173v-14h-80v12q0 60 -39 84q-32 21 -103 21h-158q-75 0 -109 -22q-48 -31 -48 -117v-107q0 -80 48 -113q40 -27 126 -27h145q147 0 147 107v17h80v-15q0 -97 -52 -138t-172 -41h-194q-214 0 -214 206z" />
    <glyph glyph-name="d" unicode="d" horiz-adv-x="791" 
d="M144 308v-100q0 -79 33 -110q38 -36 138 -36h140q92 0 133 39q36 35 36 108v97q0 85 -50 117q-40 25 -137 25h-116q-95 0 -133 -26q-44 -30 -44 -114zM710 724v-724h-80v81h-2q-36 -89 -185 -89h-120q-130 0 -191 42q-74 50 -74 173v90q0 124 58 172.5t212 48.5h131
q137 0 163 -76h2v282h86z" />
    <glyph glyph-name="e" unicode="e" 
d="M625 310v34q0 104 -179 104h-126q-103 0 -136.5 -26t-39.5 -112h481zM58 201v111q0 125 79 172q56 34 171 34h138q129 0 190 -42q75 -52 75 -179v-57h-567v-32q0 -85 47 -116q44 -30 159 -30h118q85 0 117 17q36 19 40 75h86v-10q0 -84 -68 -120q-61 -32 -189 -32h-156
q-108 0 -162 34q-78 49 -78 175z" />
    <glyph glyph-name="f" unicode="f" horiz-adv-x="494" 
d="M139 0v440h-111v70h111v45q0 86 49 130q43 39 119 39h161v-70h-154q-89 0 -89 -81v-63h243v-70h-243v-440h-86z" />
    <glyph glyph-name="g" unicode="g" horiz-adv-x="791" 
d="M624 230v62q0 77 -31 114q-36 42 -122 42h-175q-152 0 -152 -108v-94q0 -86 33 -119.5t113 -33.5h166q168 0 168 137zM710 510v-509q0 -185 -242 -185h-194q-107 0 -159 52q-41 40 -41 100v17h80v-14q0 -85 148 -85h84q143 0 183 18q55 26 55 122v76h-2q-15 -40 -48 -57
q-41 -22 -125 -22h-177q-214 0 -214 204v85q0 206 230 206h183q125 0 157 -99h2v91h80z" />
    <glyph glyph-name="h" unicode="h" horiz-adv-x="791" 
d="M81 0v724h86v-302h2q23 56 75 78q44 18 131 18h123q212 0 212 -173v-345h-86v324q0 64 -31 90q-41 34 -157 34h-22q-148 0 -197.5 -33t-49.5 -125v-290h-86z" />
    <glyph glyph-name="i" unicode="i" horiz-adv-x="272" 
d="M93 0v510h86v-510h-86zM93 630v94h86v-94h-86z" />
    <glyph glyph-name="j" unicode="j" horiz-adv-x="272" 
d="M9 -178v70q51 0 67.5 12t16.5 50v556h86v-569q0 -55 -35.5 -87t-100.5 -32h-34zM93 630v94h86v-94h-86z" />
    <glyph glyph-name="k" unicode="k" horiz-adv-x="716" 
d="M81 0v724h86v-407h42l297 193h134l2 -2l-352 -226l419 -280l-2 -2h-134l-369 247h-37v-247h-86z" />
    <glyph glyph-name="l" unicode="l" horiz-adv-x="272" 
d="M93 0v724h86v-724h-86z" />
    <glyph glyph-name="m" unicode="m" horiz-adv-x="1235" 
d="M81 0v510h80v-60h2q26 39 67 54q37 14 104 14h139q125 0 165 -94q44 94 189 94h104q105 0 164 -45t59 -131v-342h-86v332q0 116 -163 116h-61q-106 0 -146 -42q-30 -32 -30 -104v-302h-86v309q0 77 -33 107q-36 32 -135 32h-86q-161 0 -161 -128v-320h-86z" />
    <glyph glyph-name="n" unicode="n" horiz-adv-x="791" 
d="M81 0v510h80v-88h2q23 56 75 78q44 18 131 18h129q212 0 212 -173v-345h-86v324q0 64 -31 90q-41 34 -157 34h-22q-148 0 -197.5 -33t-49.5 -125v-290h-86z" />
    <glyph glyph-name="o" unicode="o" horiz-adv-x="815" 
d="M64 199v112q0 117 80 167q66 40 202 40h123q136 0 202 -40q80 -50 80 -167v-112q0 -117 -80 -166q-66 -41 -202 -41h-123q-136 0 -202 41q-80 49 -80 166zM665 204v102q0 83 -47 116q-39 26 -123 26h-175q-84 0 -122 -26q-48 -33 -48 -116v-102q0 -83 48 -116
q38 -26 122 -26h175q84 0 123 26q47 33 47 116z" />
    <glyph glyph-name="p" unicode="p" horiz-adv-x="791" 
d="M647 202v100q0 78 -31 110q-35 36 -122 36h-171q-156 0 -156 -147v-97q0 -84 49 -117q38 -25 118 -25h153q83 0 118 26q42 31 42 114zM81 -178v688h80v-81h2q36 89 171 89h163q236 0 236 -215v-90q0 -122 -57.5 -171.5t-192.5 -49.5h-164q-67 0 -101.5 18t-48.5 58h-2
v-246h-86z" />
    <glyph glyph-name="q" unicode="q" horiz-adv-x="791" 
d="M624 204v97q0 147 -156 147h-171q-87 0 -122 -36q-31 -32 -31 -110v-100q0 -83 43 -114q34 -26 117 -26h153q80 0 118 25q49 33 49 117zM624 -178v246h-2q-14 -40 -48.5 -58t-101.5 -18h-164q-135 0 -191 49q-59 50 -59 172v90q0 215 236 215h163q135 0 171 -89h2v81h80
v-688h-86z" />
    <glyph glyph-name="r" unicode="r" horiz-adv-x="642" 
d="M88 0v510h80v-74h2q40 82 156 82h81q119 0 166.5 -41t47.5 -136v-61h-80v22q0 94 -32 120t-147 26h-53q-65 0 -102 -37q-33 -34 -33 -87v-324h-86z" />
    <glyph glyph-name="s" unicode="s" 
d="M62 145v31h80v-25q0 -48 27.5 -68.5t93.5 -20.5h184q104 0 133 12q37 15 37 69v4q0 41 -20 56q-25 20 -97 20h-265q-90 0 -128 31.5t-38 104.5v30q0 67 50 96q58 33 209 33h132q133 0 183 -37q38 -28 38 -91v-27h-80v5q0 54 -38 69q-26 11 -108 11h-150
q-93 0 -121.5 -13.5t-28.5 -56.5v-19q0 -35 18 -49q23 -17 86 -17h227q113 0 157 -24q60 -32 60 -127v-2q0 -95 -79 -128q-49 -20 -158 -20h-158q-125 0 -171 19q-75 32 -75 134z" />
    <glyph glyph-name="t" unicode="t" horiz-adv-x="593" 
d="M127 153v287h-112v70h112v121h86v-121h341v-70h-341v-254q0 -71 28 -97.5t99 -26.5h27q84 0 108 24.5t24 106.5v38h70v-56q0 -94 -28 -130q-42 -53 -168 -53h-47q-199 0 -199 161z" />
    <glyph glyph-name="u" unicode="u" horiz-adv-x="791" 
d="M630 0v88h-2q-23 -56 -75 -78q-44 -18 -131 -18h-129q-212 0 -212 173v345h86v-324q0 -64 31 -90q41 -34 157 -34h22q148 0 199 34q48 32 48 124v290h86v-510h-80z" />
    <glyph glyph-name="v" unicode="v" horiz-adv-x="690" 
d="M294 0l-288 510h91l248 -440l248 440h91l-288 -510h-102z" />
    <glyph glyph-name="w" unicode="w" horiz-adv-x="1042" 
d="M239 0l-232 510h91l199 -440l162 440h124l162 -440l199 440h91l-232 -510h-119l-163 440l-163 -440h-119z" />
    <glyph glyph-name="x" unicode="x" horiz-adv-x="690" 
d="M5 0l279 272l-242 238h118l185 -187l185 187h118l-242 -238l279 -272h-123l-217 221l-217 -221h-123z" />
    <glyph glyph-name="y" unicode="y" horiz-adv-x="667" 
d="M109 -190v70q102 0 135 17q37 20 70 95h-21l-289 518h97l247 -451l222 451h93l-288 -573q-40 -80 -87 -103t-179 -24z" />
    <glyph glyph-name="z" unicode="z" horiz-adv-x="667" 
d="M45 0v70l453 368v2h-438v70h556v-70l-453 -368v-2h459v-70h-577z" />
    <glyph glyph-name="braceleft" unicode="{" horiz-adv-x="370" 
d="M46 327v70q33 1 60 30t27 76v89q0 60 39 99q33 33 74 33h78v-70h-55q-50 0 -50 -80v-85q0 -60 -36 -96q-26 -24 -57 -30v-2q93 -17 93 -131v-80q0 -80 50 -80h55v-70h-78q-41 0 -74 33q-39 39 -39 99v84q0 50 -28 82q-25 28 -59 29z" />
    <glyph glyph-name="bar" unicode="|" horiz-adv-x="222" 
d="M71 -8v740h80v-740h-80z" />
    <glyph glyph-name="braceright" unicode="}" horiz-adv-x="370" 
d="M46 0v70h55q50 0 50 80v85q0 60 36 96q26 24 57 30v2q-93 17 -93 131v80q0 80 -50 80h-55v70h78q41 0 75 -33q38 -39 38 -99v-84q0 -50 28 -82q25 -28 59 -29v-70q-33 -1 -60 -30t-27 -76v-89q0 -60 -38 -99q-34 -33 -75 -33h-78z" />
    <glyph glyph-name="asciitilde" unicode="~" horiz-adv-x="600" 
d="M105 179v0l-36 59q44 84 125 84q45 0 118 -33.5t95 -33.5q40 0 88 73l36 -59q-44 -84 -125 -84q-45 0 -118 33.5t-95 33.5q-40 0 -88 -73z" />
    <glyph glyph-name="euro" horiz-adv-x="498" 
d="M522 633l-23 -156l-48 6q0 157 -94 157q-103 0 -161 -211h172l-21 -48h-164q-6 -24 -16 -73h147l-21 -47h-134q-6 -41 -6 -74q0 -56 21 -91q26 -43 78 -43q58 0 101 68q24 38 51 119l55 -10l-54 -188q-77 -53 -159 -53q-111 0 -166 84q-47 71 -47 188h-74l21 47h56
q3 25 12 73h-66l21 48h59q41 112 108 183q83 88 187 88q94 0 165 -67z" />
    <glyph glyph-name="exclamdown" unicode="&#xa1;" horiz-adv-x="482" 
d="M185 386v124h112v-124h-112zM201 -214v514h80v-514h-80z" />
    <glyph glyph-name="cent" unicode="&#xa2;" horiz-adv-x="964" 
d="M398 63l111 385h-100q-75 0 -109 -22q-48 -31 -48 -117v-107q0 -73 40 -106q34 -29 106 -33zM341 -133l36 125q-211 3 -211 206v114q0 206 230 206h133l36 125h76l-37 -126q185 -8 185 -172v-14h-80v12q0 101 -125 104l-111 -385h98q147 0 147 109v15h80v-15
q0 -97 -52 -138t-172 -41h-121l-36 -125h-76z" />
    <glyph glyph-name="sterling" unicode="&#xa3;" horiz-adv-x="964" 
d="M64 0v80q72 1 100 32q24 27 24 90v98h-124v70h124v192q0 97 59 137q48 33 151 33h230q146 0 196 -39q57 -45 57 -183h-86q0 86 -25 112q-30 30 -136 30h-217q-75 0 -104 -19q-33 -22 -33 -79v-184h371v-70h-371v-72q0 -83 -11 -109q-8 -18 -41 -37v-2h672v-80h-836z" />
    <glyph glyph-name="currency" unicode="&#xa4;" horiz-adv-x="964" 
d="M227 158l57 57q-50 64 -50 147q0 80 49 148l-56 56l51 51l56 -56q66 49 148 49q81 0 147 -50l57 57l51 -51l-57 -57q50 -64 50 -147t-50 -147l57 -57l-51 -51l-57 57q-64 -50 -147 -50q-84 0 -147 50l-57 -57zM314 362q0 -75 47 -124.5t121 -49.5t121 49.5t47 124.5
t-47 124.5t-121 49.5t-121 -49.5t-47 -124.5z" />
    <glyph glyph-name="yen" unicode="&#xa5;" horiz-adv-x="964" 
d="M439 0v144h-224v64h224v92h-224v64h166l-321 360h106l316 -356l316 356h106l-321 -360h166v-64h-224v-92h224v-64h-224v-144h-86z" />
    <glyph glyph-name="brokenbar" unicode="&#xa6;" horiz-adv-x="222" 
d="M71 -8v277h80v-277h-80zM71 455v277h80v-277h-80z" />
    <glyph glyph-name="section" unicode="&#xa7;" horiz-adv-x="815" 
d="M132 119v29h80q0 -65 20 -78.5t119 -13.5h168q52 0 68 14.5t16 59.5q0 36 -12 48t-49 19l-340 63q-112 21 -112 124q0 89 93 112q-52 35 -52 107q0 129 139 129h244q85 0 117 -31q26 -24 26 -79v-27h-70v17q0 62 -76 62h-200q-60 0 -77 -9q-23 -13 -23 -60q0 -25 19 -38
q16 -10 53 -17l317 -62q63 -12 92 -38q33 -29 33 -84q0 -93 -98 -121q38 -20 49 -48q7 -18 7 -65q0 -92 -44 -120q-31 -20 -121 -20h-247q-139 0 -139 127zM593 413l-330 64q-6 1 -12 1q-30 0 -55.5 -23.5t-25.5 -55.5q0 -51 81 -67l278 -56q35 -7 43 -7q31 0 54 18
q29 22 29 63q0 51 -62 63z" />
    <glyph glyph-name="dieresis" unicode="&#xa8;" horiz-adv-x="272" 
d="M-12 602v112h86v-112h-86zM198 602v112h86v-112h-86z" />
    <glyph glyph-name="copyright" unicode="&#xa9;" horiz-adv-x="800" 
d="M519 299h76q-12 -72 -62.5 -113.5t-118.5 -41.5q-95 0 -153 62t-58 157q0 97 56 158t152 61q71 0 120 -38q51 -41 61 -111h-73q-8 39 -37 62t-70 23q-61 0 -95 -43t-34 -114q0 -66 36.5 -109.5t94.5 -43.5q93 0 105 91zM30 362q0 153 108.5 261.5t261.5 108.5
t261.5 -108.5t108.5 -261.5t-108.5 -261.5t-261.5 -108.5t-261.5 108.5t-108.5 261.5zM100 362q0 -124 88 -212t212 -88q125 0 212.5 88t87.5 212q0 125 -87.5 212.5t-212.5 87.5q-124 0 -212 -87.5t-88 -212.5z" />
    <glyph glyph-name="ordfeminine" unicode="&#xaa;" horiz-adv-x="497" 
d="M402 421v31h-2q-13 -26 -52 -33q-15 -3 -65 -3h-137q-60 0 -84 24q-22 21 -22 68v20q0 77 108 77h136q82 0 107 -35h2v47q0 40 -33 54q-20 9 -67 9h-111q-68 0 -68 -42h-58v15q0 79 125 79h114q68 0 102 -13q60 -24 60 -92v-206h-55zM287 559h-115q-74 0 -74 -49
q0 -48 67 -48h113q51 0 71 5q44 9 44 42q0 31 -30 42q-22 8 -76 8z" />
    <glyph glyph-name="guillemotleft" unicode="&#xab;" horiz-adv-x="519" 
d="M356 111l-109 154l109 154h83l-109 -154l109 -154h-83zM189 111l-109 154l109 154h83l-109 -154l109 -154h-83z" />
    <glyph glyph-name="logicalnot" unicode="&#xac;" horiz-adv-x="600" 
d="M483 111v211h-436v70h506v-281h-70z" />
    <glyph glyph-name="sfthyphen" unicode="&#xad;" horiz-adv-x="338" 
d="M8 174l33 122h246l-33 -122h-246z" />
    <glyph glyph-name="registered" unicode="&#xae;" horiz-adv-x="800" 
d="M30 362q0 153 108.5 261.5t261.5 108.5t261.5 -108.5t108.5 -261.5t-108.5 -261.5t-261.5 -108.5t-261.5 108.5t-108.5 261.5zM100 362q0 -124 88 -212t212 -88q125 0 212.5 88t87.5 212q0 125 -87.5 212.5t-212.5 87.5q-124 0 -212 -87.5t-88 -212.5zM258 153v419h155
q158 0 158 -123q0 -101 -112 -113l115 -183h-80l-105 180h-61v-180h-70zM328 391h84q44 0 63 11q26 14 26 53q0 59 -88 59h-85v-123z" />
    <glyph glyph-name="macron" unicode="&#xaf;" horiz-adv-x="272" 
d="M-61 637v64h394v-64h-394z" />
    <glyph glyph-name="macron" unicode="&#x2c9;" horiz-adv-x="272" 
d="M-61 637v64h394v-64h-394z" />
    <glyph glyph-name="degree" unicode="&#xb0;" horiz-adv-x="400" 
d="M200 446q-60 0 -101.5 41.5t-41.5 101.5t41.5 101.5t101.5 41.5t101.5 -41.5t41.5 -101.5t-41.5 -101.5t-101.5 -41.5zM115 589q0 -35 25 -60t60 -25t60 25t25 60t-25 60t-60 25t-60 -25t-25 -60z" />
    <glyph glyph-name="plusminus" unicode="&#xb1;" horiz-adv-x="600" 
d="M265 123v157h-218v70h218v156h70v-156h218v-70h-218v-157h-70zM47 0v75h506v-75h-506z" />
    <glyph glyph-name="twosuperior" unicode="&#xb2;" horiz-adv-x="626" 
d="M48 293v83q0 68 39 96q33 25 117 30l128 8q121 8 148 21q24 11 24 56q0 47 -18 65q-21 22 -81 22h-178q-58 0 -79 -14q-28 -19 -28 -79v-14h-70v41q0 67 40 95.5t126 28.5h198q95 0 131 -39q29 -31 29 -103q0 -76 -38 -102q-31 -22 -128 -28l-170 -11q-77 -5 -98.5 -19
t-21.5 -51v-28h460v-58h-530z" />
    <glyph glyph-name="threesuperior" unicode="&#xb3;" horiz-adv-x="626" 
d="M40 397v38h70q0 -55 16 -71q19 -21 84 -21h161q94 0 115.5 10.5t21.5 63.5q0 46 -17 59q-14 10 -59 10h-186v58h171q58 0 73 15q11 10 11 47q0 51 -34 63q-14 5 -78 5h-163q-63 0 -88 -12.5t-25 -43.5v-20h-70v29q0 105 133 105h233q94 0 128 -25t34 -86q0 -59 -13 -77
t-61 -28v-2q46 -5 62 -23q19 -21 19 -79q0 -70 -23 -93q-35 -34 -147 -34h-199q-95 0 -132 25t-37 87z" />
    <glyph glyph-name="acute" unicode="&#xb4;" horiz-adv-x="272" 
d="M52 588l148 185h103l-184 -185h-67z" />
    <glyph glyph-name="mu" unicode="&#xb5;" horiz-adv-x="791" 
d="M630 0v88h-2q-23 -56 -75 -78q-44 -18 -131 -18h-129q-83 0 -126 25v-195h-86v688h86v-324q0 -64 31 -90q41 -34 157 -34h22q148 0 199 34q48 32 48 124v290h86v-510h-80z" />
    <glyph glyph-name="mu" unicode="&#x3bc;" horiz-adv-x="791" 
d="M630 0v88h-2q-23 -56 -75 -78q-44 -18 -131 -18h-129q-83 0 -126 25v-195h-86v688h86v-324q0 -64 31 -90q41 -34 157 -34h22q148 0 199 34q48 32 48 124v290h86v-510h-80z" />
    <glyph glyph-name="paragraph" unicode="&#xb6;" horiz-adv-x="600" 
d="M410 0v660h-104v-660h-80v410q-81 0 -128.5 42t-47.5 113q0 159 192 159h248v-724h-80z" />
    <glyph glyph-name="ch270" unicode="&#xb7;" horiz-adv-x="249" 
d="M38 348q0 34 23 57t57 23t57.5 -23t23.5 -57t-23.5 -57.5t-57.5 -23.5t-57 23.5t-23 57.5z" />
    <glyph glyph-name="ch270" unicode="&#x2219;" horiz-adv-x="249" 
d="M38 348q0 34 23 57t57 23t57.5 -23t23.5 -57t-23.5 -57.5t-57.5 -23.5t-57 23.5t-23 57.5z" />
    <glyph glyph-name="cedilla" unicode="&#xb8;" horiz-adv-x="272" 
d="M12 -252l19 38q41 -19 84 -19q86 0 86 59q0 27 -19.5 40.5t-46.5 13.5q-5 0 -55 -10l-21 18l83 112h51l-65 -80l2 -2q24 8 43 8q47 0 77.5 -25t30.5 -71q0 -56 -49 -85q-40 -24 -99 -24q-57 0 -121 27z" />
    <glyph glyph-name="onesuperior" unicode="&#xb9;" horiz-adv-x="626" 
d="M321 293v364l-161 -120l-36 49l191 141h76v-434h-70z" />
    <glyph glyph-name="ordmasculine" unicode="&#xba;" horiz-adv-x="530" 
d="M42 540v68q0 70 52 100q43 24 131 24h80q88 0 131 -24q52 -30 52 -100v-68q0 -70 -52 -99q-43 -25 -131 -25h-80q-88 0 -131 25q-52 29 -52 99zM424 553v42q0 49 -31 69q-25 16 -80 16h-97q-55 0 -79 -16q-31 -19 -31 -69v-42q0 -50 31 -69q24 -16 79 -16h97q55 0 80 16
q31 20 31 69z" />
    <glyph glyph-name="guillemotright" unicode="&#xbb;" horiz-adv-x="519" 
d="M80 111l109 154l-109 154h83l109 -154l-109 -154h-83zM247 111l109 154l-109 154h83l109 -154l-109 -154h-83z" />
    <glyph glyph-name="onequarter" unicode="&#xbc;" horiz-adv-x="1444" 
d="M745 89v72l397 273h83v-287h75v-58h-75v-89h-70v89h-410zM1155 147v229l-330 -227v-2h330zM340 -8l581 740h83l-581 -740h-83zM341 293v364l-161 -120l-36 49l191 141h76v-434h-70z" />
    <glyph glyph-name="onehalf" unicode="&#xbd;" horiz-adv-x="1444" 
d="M260 -8l581 740h83l-581 -740h-83zM341 293v364l-161 -120l-36 49l191 141h76v-434h-70zM747 0v83q0 68 39 96q33 24 117 30l214 15q53 4 71 21q15 14 15 49q0 47 -18 65q-21 22 -81 22h-178q-58 0 -79 -14q-28 -19 -28 -79v-14h-70v41q0 67 40 95.5t126 28.5h198
q95 0 131 -39q29 -31 29 -103q0 -76 -38 -102q-31 -22 -128 -28l-170 -11q-77 -5 -98.5 -19t-21.5 -51v-28h460v-58h-530z" />
    <glyph glyph-name="threequarters" unicode="&#xbe;" horiz-adv-x="1444" 
d="M440 -8l581 740h83l-581 -740h-83zM86 397v38h70q0 -55 16 -71q19 -21 84 -21h161q94 0 115.5 10.5t21.5 63.5q0 46 -17 59q-14 10 -59 10h-186v58h171q58 0 73 15q11 10 11 47q0 51 -34 63q-14 5 -78 5h-163q-63 0 -88 -12.5t-25 -43.5v-20h-70v29q0 105 133 105h233
q94 0 128 -25t34 -86q0 -59 -13 -77t-61 -28v-2q46 -5 62 -23q19 -21 19 -79q0 -70 -23 -93q-35 -34 -147 -34h-199q-95 0 -132 25t-37 87zM745 89v72l397 273h83v-287h75v-58h-75v-89h-70v89h-410zM1155 147v229l-330 -227v-2h330z" />
    <glyph glyph-name="questiondown" unicode="&#xbf;" horiz-adv-x="791" 
d="M407 267v22h80v-19q0 -78 -39 -105q-34 -25 -168 -50q-89 -17 -110 -36q-25 -23 -25 -102q0 -62 15 -85q18 -27 74 -36q48 -8 173 -8q158 0 197 13q54 19 54 94v65h86v-80q0 -111 -82 -142q-53 -20 -238 -20q-161 0 -222 10q-81 13 -112 56.5t-31 143.5q0 115 56 155
q37 27 176 50q116 19 116 74zM391 386v124h112v-124h-112z" />
    <glyph glyph-name="Agrave" unicode="&#xc0;" horiz-adv-x="1012" 
d="M521 790l-15 -1l-15 1l-190 167h112zM997 0h-111l-90 153h-580l-90 -153h-111l430 724h122zM749 233l-243 411l-243 -411h486z" />
    <glyph glyph-name="Aacute" unicode="&#xc1;" horiz-adv-x="1012" 
d="M15 0l430 724h122l430 -724h-111l-90 153h-580l-90 -153h-111zM749 233l-243 411l-243 -411h486zM490 790l108 167h112l-190 -167l-15 -1z" />
    <glyph glyph-name="Acircumflex" unicode="&#xc2;" horiz-adv-x="1012" 
d="M15 0l430 724h122l430 -724h-111l-90 153h-580l-90 -153h-111zM749 233l-243 411l-243 -411h486zM323 749l146 147h74l146 -147h-82l-102 105l-102 -105h-80z" />
    <glyph glyph-name="Atilde" unicode="&#xc3;" horiz-adv-x="1012" 
d="M15 0l430 724h122l430 -724h-111l-90 153h-580l-90 -153h-111zM749 233l-243 411l-243 -411h486zM683 903h45q-25 -41 -75 -76q-55 -39 -97 -38q-27 1 -70 29.5t-67 28.5q-43 1 -86 -57h-45q27 42 75 76q54 39 97 38q29 -1 73.5 -29.5t65.5 -28.5q41 -1 84 57z" />
    <glyph glyph-name="Adieresis" unicode="&#xc4;" horiz-adv-x="1012" 
d="M15 0l430 724h122l430 -724h-111l-90 153h-580l-90 -153h-111zM749 233l-243 411l-243 -411h486zM358 786v112h86v-112h-86zM568 786v112h86v-112h-86z" />
    <glyph glyph-name="Aring" unicode="&#xc5;" horiz-adv-x="1012" 
d="M15 0l430 724h122l430 -724h-111l-90 153h-580l-90 -153h-111zM749 233l-243 411l-243 -411h486zM429 907q0 -32 22.5 -54.5t54.5 -22.5t54.5 22.5t22.5 54.5t-22.5 54.5t-54.5 22.5t-54.5 -22.5t-22.5 -54.5zM371 907q0 56 39.5 95.5t95.5 39.5t95.5 -39.5t39.5 -95.5
t-39.5 -95.5t-95.5 -39.5t-95.5 39.5t-39.5 95.5z" />
    <glyph glyph-name="AE" unicode="&#xc6;" horiz-adv-x="1259" 
d="M605 249v395h-76l-245 -395h321zM20 0l453 724h710v-80h-480v-231h458v-80h-458v-253h489v-80h-587v169h-366l-109 -169h-110z" />
    <glyph glyph-name="Ccedilla" unicode="&#xc7;" horiz-adv-x="1012" 
d="M77 263v198q0 142 56 204q59 67 202 67h375q227 0 227 -180v-62h-86v33q0 83 -49 111q-33 18 -117 18h-340q-80 0 -120 -30q-50 -37 -50 -124v-272q0 -87 50 -124q40 -30 120 -30h343q99 0 134.5 26.5t35.5 99.5v45h92v-49q0 -106 -46 -150q-55 -52 -199 -52h-370
q-143 0 -202 67q-56 62 -56 204zM382 -252l19 38q41 -19 84 -19q86 0 86 59q0 27 -19.5 40.5t-46.5 13.5q-5 0 -55 -10l-21 18l83 112h51l-65 -80l2 -2q24 8 43 8q47 0 77.5 -25t30.5 -71q0 -56 -49 -85q-40 -24 -99 -24q-57 0 -121 27z" />
    <glyph glyph-name="Egrave" unicode="&#xc8;" horiz-adv-x="864" 
d="M96 0v724h711v-80h-613v-231h589v-80h-589v-253h617v-80h-715zM465 791l-15 -1l-15 1l-190 167h112z" />
    <glyph glyph-name="Eacute" unicode="&#xc9;" horiz-adv-x="864" 
d="M96 0v724h711v-80h-613v-231h589v-80h-589v-253h617v-80h-715zM435 791l108 167h112l-190 -167l-15 -1z" />
    <glyph glyph-name="Ecircumflex" unicode="&#xca;" horiz-adv-x="864" 
d="M96 0v724h711v-80h-613v-231h589v-80h-589v-253h617v-80h-715zM268 760l146 147h74l146 -147h-82l-102 105l-102 -105h-80z" />
    <glyph glyph-name="Edieresis" unicode="&#xcb;" horiz-adv-x="864" 
d="M96 0v724h711v-80h-613v-231h589v-80h-589v-253h617v-80h-715zM284 786v112h86v-112h-86zM494 786v112h86v-112h-86z" />
    <glyph glyph-name="Igrave" unicode="&#xcc;" horiz-adv-x="296" 
d="M99 0v724h98v-724h-98zM166 791l-15 -1l-15 1l-190 167h112z" />
    <glyph glyph-name="Iacute" unicode="&#xcd;" horiz-adv-x="296" 
d="M99 0v724h98v-724h-98zM135 791l108 167h112l-190 -167l-15 -1z" />
    <glyph glyph-name="Icircumflex" unicode="&#xce;" horiz-adv-x="296" 
d="M99 0v724h98v-724h-98zM-44 772l151 185h82l151 -185h-80l-113 139l-113 -139h-78z" />
    <glyph glyph-name="Idieresis" unicode="&#xcf;" horiz-adv-x="296" 
d="M99 0v724h98v-724h-98zM0 786v112h86v-112h-86zM210 786v112h86v-112h-86z" />
    <glyph glyph-name="Eth" unicode="&#xd0;" horiz-adv-x="1061" 
d="M886 323v74q0 148 -47 202q-40 45 -138 45h-513v-231h418v-80h-418v-253h497q103 0 145 40q56 53 56 203zM90 0v333h-63v80h63v311h585q182 0 245.5 -74t63.5 -288q0 -204 -64 -281q-67 -81 -248 -81h-582z" />
    <glyph glyph-name="Ntilde" unicode="&#xd1;" horiz-adv-x="1087" 
d="M90 0v724h146l663 -636v636h98v-724h-146l-663 636v-636h-98zM702 921v0h50q-2 -49 -37 -89.5t-80 -40.5q-36 0 -99 30.5t-92 30.5q-43 0 -58 -66h-50q2 49 37 89.5t80 40.5q37 0 100.5 -30.5t90.5 -30.5q43 0 58 66z" />
    <glyph glyph-name="Ograve" unicode="&#xd2;" horiz-adv-x="1087" 
d="M912 226v272q0 154 -170 154h-397q-170 0 -170 -154v-272q0 -154 170 -154h397q170 0 170 154zM77 263v198q0 142 58.5 206.5t199.5 64.5h417q142 0 201 -66q57 -62 57 -205v-198q0 -143 -57 -205q-59 -66 -201 -66h-417q-141 0 -201 66q-57 63 -57 205zM550 801l-15 -1
l-15 1l-190 167h112z" />
    <glyph glyph-name="Oacute" unicode="&#xd3;" horiz-adv-x="1087" 
d="M912 226v272q0 154 -170 154h-397q-170 0 -170 -154v-272q0 -154 170 -154h397q170 0 170 154zM77 263v198q0 142 58.5 206.5t199.5 64.5h417q142 0 201 -66q57 -62 57 -205v-198q0 -143 -57 -205q-59 -66 -201 -66h-417q-141 0 -201 66q-57 63 -57 205zM520 801l108 167
h112l-190 -167l-15 -1z" />
    <glyph glyph-name="Ocircumflex" unicode="&#xd4;" horiz-adv-x="1087" 
d="M912 226v272q0 154 -170 154h-397q-170 0 -170 -154v-272q0 -154 170 -154h397q170 0 170 154zM77 263v198q0 142 58.5 206.5t199.5 64.5h417q142 0 201 -66q57 -62 57 -205v-198q0 -143 -57 -205q-59 -66 -201 -66h-417q-141 0 -201 66q-57 63 -57 205zM353 760l146 147
h74l146 -147h-82l-102 105l-102 -105h-80z" />
    <glyph glyph-name="Otilde" unicode="&#xd5;" horiz-adv-x="1087" 
d="M912 226v272q0 154 -170 154h-397q-170 0 -170 -154v-272q0 -154 170 -154h397q170 0 170 154zM77 263v198q0 142 58.5 206.5t199.5 64.5h417q142 0 201 -66q57 -62 57 -205v-198q0 -143 -57 -205q-59 -66 -201 -66h-417q-141 0 -201 66q-57 63 -57 205zM713 913h45
q-25 -41 -75 -76q-55 -39 -97 -38q-27 1 -70 29.5t-67 28.5q-43 1 -86 -57h-45q27 42 75 76q54 39 97 38q29 -1 73.5 -29.5t65.5 -28.5q41 -1 84 57z" />
    <glyph glyph-name="Odieresis" unicode="&#xd6;" horiz-adv-x="1087" 
d="M912 226v272q0 87 -50 124q-40 30 -120 30h-397q-80 0 -120 -30q-50 -37 -50 -124v-272q0 -87 50 -124q40 -30 120 -30h397q80 0 120 30q50 37 50 124zM77 263v198q0 142 56 204q59 67 202 67h417q143 0 203 -67q55 -62 55 -204v-198q0 -142 -55 -204q-60 -67 -203 -67
h-417q-143 0 -202 67q-56 62 -56 204zM396 786v112h86v-112h-86zM606 786v112h86v-112h-86z" />
    <glyph glyph-name="multiply" unicode="&#xd7;" horiz-adv-x="600" 
d="M521 80l-49 -48l-172 171l-172 -171l-49 48l173 173l-172 170l49 49l171 -171l172 171l49 -49l-172 -170z" />
    <glyph glyph-name="Oslash" unicode="&#xd8;" horiz-adv-x="1087" 
d="M197 133l642 502q-24 17 -97 17h-397q-80 0 -120 -30q-50 -37 -50 -124v-272q0 -58 22 -93zM912 226v272q0 57 -22 92l-641 -502q37 -16 96 -16h397q80 0 120 30q50 37 50 124zM87 -38l-42 53l76 59q-44 62 -44 189v198q0 142 56 204q59 67 202 67h417q106 0 164 -36
l84 66l42 -53l-76 -59q44 -62 44 -189v-198q0 -142 -55 -204q-60 -67 -203 -67h-417q-105 0 -164 35z" />
    <glyph glyph-name="Ugrave" unicode="&#xd9;" horiz-adv-x="1042" 
d="M96 182v542h98v-541q0 -69 46 -93q33 -18 111 -18h340q78 0 111 18q46 24 46 93v541h98v-542q0 -117 -74 -159q-56 -31 -184 -31h-334q-128 0 -183 31q-75 42 -75 159zM535 761l-15 -1l-15 1l-190 167h112z" />
    <glyph glyph-name="Uacute" unicode="&#xda;" horiz-adv-x="1042" 
d="M96 182v542h98v-541q0 -69 46 -93q33 -18 111 -18h340q78 0 111 18q46 24 46 93v541h98v-542q0 -117 -74 -159q-56 -31 -184 -31h-334q-128 0 -183 31q-75 42 -75 159zM505 761l108 167h112l-190 -167l-15 -1z" />
    <glyph glyph-name="Ucircumflex" unicode="&#xdb;" horiz-adv-x="1042" 
d="M96 182v542h98v-541q0 -58 29 -82q34 -29 128 -29h340q94 0 128 29q29 24 29 82v541h98v-542q0 -108 -58.5 -149t-199.5 -41h-334q-141 0 -198 40q-60 42 -60 150zM329 772l151 185h82l151 -185h-80l-113 139l-113 -139h-78z" />
    <glyph glyph-name="Udieresis" unicode="&#xdc;" horiz-adv-x="1042" 
d="M96 182v542h98v-541q0 -58 29 -82q34 -29 128 -29h340q94 0 128 29q29 24 29 82v541h98v-542q0 -108 -58.5 -149t-199.5 -41h-334q-141 0 -198 40q-60 42 -60 150zM373 786v112h86v-112h-86zM583 786v112h86v-112h-86z" />
    <glyph glyph-name="Yacute" unicode="&#xdd;" horiz-adv-x="964" 
d="M433 0v306l-415 418h132l332 -336l332 336h132l-415 -418v-306h-98zM462 751l108 167h112l-190 -167l-15 -1z" />
    <glyph glyph-name="Thorn" unicode="&#xde;" horiz-adv-x="939" 
d="M96 0v724h98v-89h498q109 0 153 -35q54 -43 54 -162q0 -137 -33 -181q-45 -61 -193 -61h-479v-196h-98zM801 379v69q0 61 -34 86q-30 21 -98 21h-475v-279h483q124 0 124 103z" />
    <glyph glyph-name="germandbls" unicode="&#xdf;" horiz-adv-x="815" 
d="M88 0v555q0 83 55.5 130t158.5 47h153q126 0 184 -36q65 -41 65 -138v-30q0 -100 -97 -129v-2q130 -19 130 -167v-56q0 -114 -71 -153q-52 -29 -185 -29q-9 0 -153 7v73q94 -10 145 -10q108 0 137 20q41 28 41 129q0 98 -45 127q-36 23 -156 23h-119v64h86
q136 0 168.5 19t32.5 106q0 76 -53 100q-43 18 -174 18q-111 0 -154 -17t-55 -69q-8 -35 -8 -152v-430h-86z" />
    <glyph glyph-name="agrave" unicode="&#xe0;" 
d="M608 0v51h-2q-22 -44 -80 -55q-22 -4 -102 -4h-206q-85 0 -124.5 35t-39.5 118v34q0 82 60 109q46 21 172 21h138q71 0 101 -7q55 -12 81 -54h2v96q0 66 -45 87q-36 17 -145 17h-126q-58 0 -84 -8q-45 -15 -45 -60v-18h-86v25q0 82 71 111q46 20 142 20h136
q136 0 194 -31q74 -39 74 -145v-342h-86zM608 137v23q0 57 -73 73q-28 6 -121 6h-132q-71 0 -95 -8q-47 -16 -47 -72v-16q0 -55 44 -72q25 -9 94 -9h114q100 0 128 5q88 14 88 70zM385 601l-13 -1l-14 1l-171 150h101z" />
    <glyph glyph-name="aacute" unicode="&#xe1;" 
d="M608 0v51h-2q-22 -44 -80 -55q-22 -4 -102 -4h-206q-85 0 -124.5 35t-39.5 118v34q0 82 60 109q46 21 172 21h138q71 0 101 -7q55 -12 81 -54h2v96q0 66 -45 87q-36 17 -145 17h-126q-58 0 -84 -8q-45 -15 -45 -60v-18h-86v25q0 82 71 111q46 20 142 20h136
q136 0 194 -31q74 -39 74 -145v-342h-86zM608 137v23q0 57 -73 73q-28 6 -121 6h-132q-71 0 -95 -8q-47 -16 -47 -72v-16q0 -55 44 -72q25 -9 94 -9h114q100 0 128 5q88 14 88 70zM359 601l97 150h101l-171 -150l-14 -1z" />
    <glyph glyph-name="acircumflex" unicode="&#xe2;" 
d="M608 0v51h-2q-22 -44 -80 -55q-22 -4 -102 -4h-206q-85 0 -124.5 35t-39.5 118v34q0 82 60 109q46 21 172 21h138q71 0 101 -7q55 -12 81 -54h2v96q0 66 -45 87q-36 17 -145 17h-126q-58 0 -84 -8q-45 -15 -45 -60v-18h-86v25q0 82 71 111q46 20 142 20h136
q136 0 194 -31q74 -39 74 -145v-342h-86zM608 137v23q0 57 -73 73q-28 6 -121 6h-132q-71 0 -95 -8q-47 -16 -47 -72v-16q0 -55 44 -72q25 -9 94 -9h114q100 0 128 5q88 14 88 70zM209 552l131 132h67l131 -132h-74l-92 94l-91 -94h-72z" />
    <glyph glyph-name="atilde" unicode="&#xe3;" 
d="M608 0v51h-2q-22 -44 -80 -55q-22 -4 -102 -4h-206q-85 0 -124.5 35t-39.5 118v34q0 82 60 109q46 21 172 21h138q71 0 101 -7q55 -12 81 -54h2v96q0 66 -45 87q-36 17 -145 17h-126q-58 0 -84 -8q-45 -15 -45 -60v-18h-86v25q0 82 71 111q46 20 142 20h136
q136 0 194 -31q74 -39 74 -145v-342h-86zM608 137v23q0 57 -73 73q-28 6 -121 6h-132q-71 0 -95 -8q-47 -16 -47 -72v-16q0 -55 44 -72q25 -9 94 -9h114q100 0 128 5q88 14 88 70zM532 701h41q-24 -37 -67 -68q-50 -35 -88 -34q-25 1 -63.5 26.5t-59.5 25.5q-39 1 -78 -51
h-40q23 37 67 69q49 34 88 33q26 -1 65 -26.5t60 -25.5q36 -1 75 51z" />
    <glyph glyph-name="adieresis" unicode="&#xe4;" 
d="M608 0v51h-2q-18 -36 -50 -47q-36 -12 -132 -12h-206q-93 0 -131 41q-33 35 -33 112v34q0 81 60 109q47 21 172 21h138q85 0 122.5 -12.5t59.5 -48.5h2v96q0 65 -45 87q-38 17 -145 17h-126q-76 0 -105 -18q-24 -15 -24 -50v-18h-86v25q0 70 49 100.5t164 30.5h136
q136 0 194 -31q74 -39 74 -145v-342h-86zM608 137v23q0 57 -73 73q-28 6 -121 6h-132q-84 0 -113 -16t-29 -64v-16q0 -45 25 -62q29 -19 113 -19h114q123 0 167 14q49 15 49 61zM235 602v112h86v-112h-86zM445 602v112h86v-112h-86z" />
    <glyph glyph-name="aring" unicode="&#xe5;" 
d="M608 0v51h-2q-18 -36 -50 -47q-36 -12 -132 -12h-206q-93 0 -131 41q-33 35 -33 112v34q0 81 60 109q47 21 172 21h138q85 0 122.5 -12.5t59.5 -48.5h2v96q0 65 -45 87q-38 17 -145 17h-126q-76 0 -105 -18q-24 -15 -24 -50v-18h-86v25q0 70 49 100.5t164 30.5h136
q136 0 194 -31q74 -39 74 -145v-342h-86zM608 137v23q0 57 -73 73q-28 6 -121 6h-132q-84 0 -113 -16t-29 -64v-16q0 -45 25 -62q29 -19 113 -19h114q123 0 167 14q49 15 49 61zM306 723q0 -32 22.5 -54.5t54.5 -22.5t54.5 22.5t22.5 54.5t-22.5 54.5t-54.5 22.5
t-54.5 -22.5t-22.5 -54.5zM248 723q0 56 39.5 95.5t95.5 39.5t95.5 -39.5t39.5 -95.5t-39.5 -95.5t-95.5 -39.5t-95.5 39.5t-39.5 95.5z" />
    <glyph glyph-name="ae" unicode="&#xe6;" horiz-adv-x="1259" 
d="M582 248v96q0 61 -41 85q-34 19 -113 19h-136q-76 0 -105 -18q-24 -15 -24 -50v-18h-86v25q0 70 49 100.5t164 30.5h156q159 0 182 -80q24 51 88 69q42 11 132 11h100q123 0 183 -42q74 -52 74 -179v-57h-537v-32q0 -85 47 -116q43 -30 157 -30h98q81 0 114 17
q37 19 41 75h80v-10q0 -152 -251 -152h-84q-94 0 -143 14q-63 18 -96 65q-29 -50 -105 -66q-57 -13 -182 -13h-126q-93 0 -131 41q-33 35 -33 112v34q0 81 60 109q47 21 172 21h129q73 0 108 -12.5t57 -48.5h2zM582 131v29q0 53 -59 70q-30 9 -103 9h-138q-84 0 -113 -16
t-29 -64v-22q0 -81 103 -81h162q90 0 129 14q48 16 48 61zM1119 310v34q0 104 -177 104h-102q-99 0 -132.5 -26t-39.5 -112h451z" />
    <glyph glyph-name="ccedilla" unicode="&#xe7;" horiz-adv-x="741" 
d="M58 198v114q0 125 81 172q57 34 175 34h144q223 0 223 -173v-14h-80v12q0 60 -39 84q-32 21 -103 21h-158q-75 0 -109 -22q-48 -31 -48 -117v-107q0 -80 48 -113q40 -27 126 -27h145q147 0 147 107v17h80v-15q0 -97 -52 -138t-172 -41h-194q-214 0 -214 206zM247 -252
l19 38q41 -19 84 -19q86 0 86 59q0 27 -19.5 40.5t-46.5 13.5q-5 0 -55 -10l-21 18l83 112h51l-65 -80l2 -2q24 8 43 8q47 0 77.5 -25t30.5 -71q0 -56 -49 -85q-40 -24 -99 -24q-57 0 -121 27z" />
    <glyph glyph-name="egrave" unicode="&#xe8;" 
d="M625 310v34q0 104 -179 104h-126q-97 0 -129 -22q-41 -27 -47 -116h481zM58 201v111q0 125 79 172q57 34 171 34h138q130 0 192 -44q73 -51 73 -177v-57h-567v-32q0 -92 60 -124q43 -22 146 -22h118q75 0 104 11q49 19 53 81h86v-10q0 -94 -88 -129q-57 -23 -169 -23
h-156q-108 0 -162 34q-78 49 -78 175zM395 601l-13 -1l-14 1l-171 150h101z" />
    <glyph glyph-name="eacute" unicode="&#xe9;" 
d="M625 310v34q0 104 -179 104h-126q-97 0 -129 -22q-41 -27 -47 -116h481zM58 201v111q0 125 79 172q57 34 171 34h138q130 0 192 -44q73 -51 73 -177v-57h-567v-32q0 -92 60 -124q43 -22 146 -22h118q75 0 104 11q49 19 53 81h86v-10q0 -94 -88 -129q-57 -23 -169 -23
h-156q-108 0 -162 34q-78 49 -78 175zM369 601l97 150h101l-171 -150l-14 -1z" />
    <glyph glyph-name="ecircumflex" unicode="&#xea;" 
d="M625 310v34q0 104 -179 104h-126q-97 0 -129 -22q-41 -27 -47 -116h481zM58 201v111q0 125 79 172q57 34 171 34h138q130 0 192 -44q73 -51 73 -177v-57h-567v-32q0 -92 60 -124q43 -22 146 -22h118q75 0 104 11q49 19 53 81h86v-10q0 -94 -88 -129q-57 -23 -169 -23
h-156q-108 0 -162 34q-78 49 -78 175zM219 551l131 132h67l131 -132h-74l-92 94l-91 -94h-72z" />
    <glyph glyph-name="edieresis" unicode="&#xeb;" 
d="M625 310v34q0 104 -179 104h-126q-103 0 -136.5 -26t-39.5 -112h481zM58 201v111q0 125 79 172q56 34 171 34h138q129 0 190 -42q75 -52 75 -179v-57h-567v-32q0 -85 47 -116q44 -30 159 -30h118q85 0 117 17q36 19 40 75h86v-10q0 -84 -68 -120q-61 -32 -189 -32h-156
q-108 0 -162 34q-78 49 -78 175zM235 602v112h86v-112h-86zM445 602v112h86v-112h-86z" />
    <glyph glyph-name="igrave" unicode="&#xec;" horiz-adv-x="272" 
d="M93 0v510h86v-510h-86zM149 591l-13 -1l-14 1l-171 150h101z" />
    <glyph glyph-name="iacute" unicode="&#xed;" horiz-adv-x="272" 
d="M93 0v510h86v-510h-86zM124 591l97 150h101l-171 -150l-14 -1z" />
    <glyph glyph-name="icircumflex" unicode="&#xee;" horiz-adv-x="272" 
d="M93 0v510h86v-510h-86zM-56 588l151 185h82l151 -185h-80l-113 139l-113 -139h-78z" />
    <glyph glyph-name="idieresis" unicode="&#xef;" horiz-adv-x="272" 
d="M93 0v510h86v-510h-86zM-12 602v112h86v-112h-86zM198 602v112h86v-112h-86z" />
    <glyph glyph-name="eth" unicode="&#xf0;" horiz-adv-x="815" 
d="M665 204v102q0 83 -47 116q-39 26 -123 26h-175q-84 0 -122 -26q-48 -33 -48 -116v-102q0 -83 48 -116q38 -26 122 -26h175q84 0 123 26q47 33 47 116zM278 603l131 79q-96 26 -234 26l26 64q180 0 291 -40l132 79l50 -35l-119 -72q196 -105 196 -420v-85
q0 -117 -80 -166q-66 -41 -202 -41h-123q-136 0 -202 41q-80 49 -80 166v112q0 117 80 167q66 40 202 40h123q107 0 167 -24q-36 113 -157 164l-151 -90z" />
    <glyph glyph-name="ntilde" unicode="&#xf1;" horiz-adv-x="791" 
d="M81 0v510h80v-88h2q23 56 75 78q44 18 131 18h129q212 0 212 -173v-345h-86v324q0 64 -31 90q-41 34 -157 34h-22q-148 0 -197.5 -33t-49.5 -125v-290h-86zM554 737v0h50q-2 -49 -37 -89.5t-80 -40.5q-36 0 -99 30.5t-92 30.5q-43 0 -58 -66h-50q2 49 37 89.5t80 40.5
q37 0 100.5 -30.5t90.5 -30.5q43 0 58 66z" />
    <glyph glyph-name="ograve" unicode="&#xf2;" horiz-adv-x="815" 
d="M64 199v112q0 121 86 170q65 37 196 37h123q131 0 196 -37q86 -49 86 -170v-112q0 -120 -86 -169q-66 -38 -196 -38h-123q-130 0 -196 38q-86 49 -86 169zM665 204v102q0 83 -46 115q-38 27 -124 27h-175q-85 0 -124 -27q-46 -33 -46 -115v-102q0 -82 46 -115
q39 -27 124 -27h175q86 0 124 27q46 32 46 115zM418 601l-13 -1l-14 1l-171 150h101z" />
    <glyph glyph-name="oacute" unicode="&#xf3;" horiz-adv-x="815" 
d="M64 199v112q0 121 86 170q65 37 196 37h123q131 0 196 -37q86 -49 86 -170v-112q0 -120 -86 -169q-66 -38 -196 -38h-123q-130 0 -196 38q-86 49 -86 169zM665 204v102q0 83 -46 115q-38 27 -124 27h-175q-85 0 -124 -27q-46 -33 -46 -115v-102q0 -82 46 -115
q39 -27 124 -27h175q86 0 124 27q46 32 46 115zM392 601l97 150h101l-171 -150l-14 -1z" />
    <glyph glyph-name="ocircumflex" unicode="&#xf4;" horiz-adv-x="815" 
d="M64 199v112q0 121 86 170q65 37 196 37h123q131 0 196 -37q86 -49 86 -170v-112q0 -120 -86 -169q-66 -38 -196 -38h-123q-130 0 -196 38q-86 49 -86 169zM665 204v102q0 83 -46 115q-38 27 -124 27h-175q-85 0 -124 -27q-46 -33 -46 -115v-102q0 -82 46 -115
q39 -27 124 -27h175q86 0 124 27q46 32 46 115zM242 551l131 132h67l131 -132h-74l-92 94l-91 -94h-72z" />
    <glyph glyph-name="otilde" unicode="&#xf5;" horiz-adv-x="815" 
d="M64 199v112q0 121 86 170q65 37 196 37h123q131 0 196 -37q86 -49 86 -170v-112q0 -120 -86 -169q-66 -38 -196 -38h-123q-130 0 -196 38q-86 49 -86 169zM665 204v102q0 83 -46 115q-38 27 -124 27h-175q-85 0 -124 -27q-46 -33 -46 -115v-102q0 -82 46 -115
q39 -27 124 -27h175q86 0 124 27q46 32 46 115zM565 701h41q-24 -37 -67 -68q-50 -35 -88 -34q-25 1 -63.5 26.5t-59.5 25.5q-39 1 -78 -51h-40q23 37 67 69q49 34 88 33q26 -1 65 -26.5t60 -25.5q36 -1 75 51z" />
    <glyph glyph-name="odieresis" unicode="&#xf6;" horiz-adv-x="815" 
d="M64 199v112q0 117 80 167q66 40 202 40h123q136 0 202 -40q80 -50 80 -167v-112q0 -117 -80 -166q-66 -41 -202 -41h-123q-136 0 -202 41q-80 49 -80 166zM665 204v102q0 83 -47 116q-39 26 -123 26h-175q-84 0 -122 -26q-48 -33 -48 -116v-102q0 -83 48 -116
q38 -26 122 -26h175q84 0 123 26q47 33 47 116zM260 602v112h86v-112h-86zM470 602v112h86v-112h-86z" />
    <glyph glyph-name="divide" unicode="&#xf7;" horiz-adv-x="600" 
d="M47 213v80h506v-80h-506zM226 45q0 31 21.5 52.5t52.5 21.5t52.5 -21.5t21.5 -52.5t-21.5 -52.5t-52.5 -21.5t-52.5 21.5t-21.5 52.5zM226 461q0 31 21.5 52.5t52.5 21.5t52.5 -21.5t21.5 -52.5t-21.5 -52.5t-52.5 -21.5t-52.5 21.5t-21.5 52.5z" />
    <glyph glyph-name="oslash" unicode="&#xf8;" horiz-adv-x="815" 
d="M170 118l432 312q-36 18 -107 18h-175q-84 0 -122 -26q-48 -33 -48 -116v-102q0 -55 20 -86zM665 204v102q0 59 -21 87l-431 -312q34 -19 107 -19h175q84 0 123 26q47 33 47 116zM64 -28l-32 45l71 52q-39 47 -39 130v112q0 117 80 167q66 40 202 40h123q134 0 200 -39
l82 59l32 -45l-71 -51q39 -50 39 -131v-112q0 -117 -80 -166q-66 -41 -202 -41h-123q-133 0 -200 40z" />
    <glyph glyph-name="ugrave" unicode="&#xf9;" horiz-adv-x="791" 
d="M630 0v88h-2q-25 -60 -85 -82q-41 -14 -121 -14h-129q-212 0 -212 173v345h86v-324q0 -79 57 -106q38 -18 131 -18h22q126 0 172 20q75 32 75 138v290h86v-510h-80zM407 553l-13 -1l-14 1l-171 150h101z" />
    <glyph glyph-name="uacute" unicode="&#xfa;" horiz-adv-x="791" 
d="M630 0v88h-2q-25 -60 -85 -82q-41 -14 -121 -14h-129q-212 0 -212 173v345h86v-324q0 -79 57 -106q38 -18 131 -18h22q126 0 172 20q75 32 75 138v290h86v-510h-80zM380 553l97 150h101l-171 -150l-14 -1z" />
    <glyph glyph-name="ucircumflex" unicode="&#xfb;" horiz-adv-x="791" 
d="M630 0v88h-2q-23 -56 -75 -78q-44 -18 -131 -18h-129q-212 0 -212 173v345h86v-324q0 -64 31 -90q41 -34 157 -34h22q148 0 199 34q48 32 48 124v290h86v-510h-80zM204 588l151 185h82l151 -185h-80l-113 139l-113 -139h-78z" />
    <glyph glyph-name="udieresis" unicode="&#xfc;" horiz-adv-x="791" 
d="M630 0v88h-2q-23 -56 -75 -78q-44 -18 -131 -18h-129q-212 0 -212 173v345h86v-324q0 -64 31 -90q41 -34 157 -34h22q148 0 199 34q48 32 48 124v290h86v-510h-80zM248 602v112h86v-112h-86zM458 602v112h86v-112h-86z" />
    <glyph glyph-name="yacute" unicode="&#xfd;" horiz-adv-x="667" 
d="M109 -190v70q103 0 135 17q37 19 70 95h-21l-289 518h97l247 -451l222 451h93l-288 -573q-44 -87 -107 -111q-41 -15 -159 -16zM319 553l97 150h101l-171 -150l-14 -1z" />
    <glyph glyph-name="thorn" unicode="&#xfe;" horiz-adv-x="791" 
d="M647 202v100q0 78 -31 110q-35 36 -122 36h-171q-156 0 -156 -147v-97q0 -84 49 -117q38 -25 118 -25h153q83 0 118 26q42 31 42 114zM81 -178v902h86v-295h2q36 89 171 89h157q236 0 236 -215v-90q0 -122 -57.5 -171.5t-192.5 -49.5h-164q-67 0 -101.5 18t-48.5 58h-2
v-246h-86z" />
    <glyph glyph-name="ydieresis" unicode="&#xff;" horiz-adv-x="667" 
d="M109 -190v70q102 0 135 17q37 20 70 95h-21l-289 518h97l247 -451l222 451h93l-288 -573q-40 -80 -87 -103t-179 -24zM186 602v112h86v-112h-86zM396 602v112h86v-112h-86z" />
    <glyph glyph-name="glyph271" unicode="&#x102;" horiz-adv-x="1012" 
d="M15 0l430 724h122l430 -724h-111l-90 153h-580l-90 -153h-111zM749 233l-243 411l-243 -411h486zM680 856q-24 -89 -174 -87t-173 89q-5 2 -5 10q0 14 16 42h26q11 -84 138 -86q115 -2 138 86h24q15 -28 15 -43q0 -8 -5 -11z" />
    <glyph glyph-name="glyph272" unicode="&#x103;" 
d="M608 0v51h-2q-22 -44 -80 -55q-22 -4 -102 -4h-206q-85 0 -124.5 35t-39.5 118v34q0 82 60 109q46 21 172 21h138q71 0 101 -7q55 -12 81 -54h2v96q0 66 -45 87q-36 17 -145 17h-126q-58 0 -84 -8q-45 -15 -45 -60v-18h-86v25q0 82 71 111q46 20 142 20h136
q136 0 194 -31q74 -39 74 -145v-342h-86zM608 137v23q0 57 -73 73q-28 6 -121 6h-132q-71 0 -95 -8q-47 -16 -47 -72v-16q0 -55 44 -72q25 -9 94 -9h114q100 0 128 5q88 14 88 70zM538 655q-23 -85 -165 -83t-164 85q-4 2 -4 9q0 14 14 40h25q11 -80 131 -82q109 -2 131 82
h23q14 -27 14 -41q0 -8 -5 -10z" />
    <glyph glyph-name="Cacute" unicode="&#x106;" horiz-adv-x="711" 
d="M77 263v198q0 142 56 204q59 67 202 67h375q227 0 227 -180v-62h-86v33q0 83 -49 111q-33 18 -117 18h-340q-80 0 -120 -30q-50 -37 -50 -124v-272q0 -87 50 -124q40 -30 120 -30h343q99 0 134.5 26.5t35.5 99.5v45h92v-49q0 -106 -46 -150q-55 -52 -199 -52h-370
q-143 0 -202 67q-56 62 -56 204zM229 843l148 185h103l-184 -185h-67z" />
    <glyph glyph-name="cacute" unicode="&#x107;" horiz-adv-x="441" 
d="M58 198v114q0 125 81 172q57 34 175 34h144q223 0 223 -173v-14h-80v12q0 60 -39 84q-32 21 -103 21h-158q-75 0 -109 -22q-48 -31 -48 -117v-107q0 -80 48 -113q40 -27 126 -27h145q147 0 147 107v17h80v-15q0 -97 -52 -138t-172 -41h-194q-214 0 -214 206zM30 588
l148 185h103l-184 -185h-67z" />
    <glyph glyph-name="Ccaron" unicode="&#x10c;" horiz-adv-x="711" 
d="M77 263v198q0 142 56 204q59 67 202 67h375q227 0 227 -180v-62h-86v33q0 83 -49 111q-33 18 -117 18h-340q-80 0 -120 -30q-50 -37 -50 -124v-272q0 -87 50 -124q40 -30 120 -30h343q99 0 134.5 26.5t35.5 99.5v45h92v-49q0 -106 -46 -150q-55 -52 -199 -52h-370
q-143 0 -202 67q-56 62 -56 204zM268 843l-147 185h81l110 -139l112 139h81l-149 -185h-88z" />
    <glyph glyph-name="ccaron" unicode="&#x10d;" horiz-adv-x="441" 
d="M58 198v114q0 125 81 172q57 34 175 34h144q223 0 223 -173v-14h-80v12q0 60 -39 84q-32 21 -103 21h-158q-75 0 -109 -22q-48 -31 -48 -117v-107q0 -80 48 -113q40 -27 126 -27h145q147 0 147 107v17h80v-15q0 -97 -52 -138t-172 -41h-194q-214 0 -214 206zM69 588
l-147 185h81l110 -139l112 139h81l-149 -185h-88z" />
    <glyph glyph-name="Dslash" unicode="&#x110;" horiz-adv-x="1061" 
d="M886 323v74q0 127 -31 178q-40 69 -154 69h-513v-231h418v-80h-418v-253h497q103 0 145 40q56 53 56 203zM90 0v333h-63v80h63v311h585q190 0 255 -88q54 -73 54 -274q0 -195 -58 -272q-68 -90 -254 -90h-582z" />
    <glyph glyph-name="dcroat" unicode="&#x111;" horiz-adv-x="791" 
d="M144 308v-100q0 -86 43 -118q37 -28 128 -28h140q84 0 124 31q45 36 45 116v97q0 87 -53 119q-40 23 -134 23h-116q-92 0 -129 -24q-48 -30 -48 -116zM710 637h61v-70h-61v-567h-80v81h-2q-36 -89 -185 -89h-120q-129 0 -190 42q-75 50 -75 173v90q0 133 71 181
q58 40 199 40h131q137 0 163 -76h2v125h-243v70h243v87h86v-87z" />
    <glyph glyph-name="Gbreve" unicode="&#x11e;" horiz-adv-x="767" 
d="M984 359v-100q0 -148 -54.5 -207.5t-190.5 -59.5h-404q-143 0 -202 67q-56 62 -56 204v198q0 142 56 204q59 67 202 67h370q269 0 269 -199v-26h-92q0 70 -20.5 99t-81.5 38q-49 8 -181 8h-254q-80 0 -120 -30q-50 -37 -50 -124v-272q0 -87 50 -124q40 -30 120 -30h383
q158 0 158 134v73h-371v80h469zM140 1019h52q14 -106 141 -106q116 0 142 106h49q-9 -83 -62 -126.5t-138 -43.5q-79 0 -127.5 45.5t-56.5 124.5z" />
    <glyph glyph-name="gbreve" unicode="&#x11f;" horiz-adv-x="492" 
d="M624 230v62q0 77 -31 114q-36 42 -122 42h-175q-152 0 -152 -108v-94q0 -86 33 -119.5t113 -33.5h166q168 0 168 137zM710 510v-509q0 -185 -242 -185h-194q-107 0 -159 52q-41 40 -41 100v17h80v-14q0 -85 148 -85h84q143 0 183 18q55 26 55 122v76h-2q-15 -40 -48 -57
q-41 -22 -125 -22h-177q-214 0 -214 204v85q0 206 230 206h183q125 0 157 -99h2v91h80zM-60 764h52q14 -106 141 -106q116 0 142 106h49q-9 -83 -62 -126.5t-138 -43.5q-79 0 -127.5 45.5t-56.5 124.5z" />
    <glyph glyph-name="glyph273" unicode="&#x128;" horiz-adv-x="296" 
d="M99 0v724h98v-724h-98zM328 903h45q-25 -41 -75 -76q-55 -39 -97 -38q-27 1 -70 29.5t-67 28.5q-43 1 -86 -57h-45q27 42 75 76q54 39 97 38q29 -1 73.5 -29.5t65.5 -28.5q41 -1 84 57z" />
    <glyph glyph-name="glyph274" unicode="&#x129;" horiz-adv-x="272" 
d="M93 0v510h86v-510h-86zM287 685h39q-22 -35 -64 -64q-47 -33 -83 -32q-25 1 -61 25t-56 24q-36 1 -74 -48h-38q22 35 64 64q47 33 83 32q26 -1 63.5 -25t55.5 -24q33 -1 71 48z" />
    <glyph glyph-name="Idotaccent" unicode="&#x130;" horiz-adv-x="429" 
d="M99 0v724h98v-724h-98zM120 857v112h86v-112h-86z" />
    <glyph glyph-name="dotlessi" unicode="&#x131;" horiz-adv-x="272" 
d="M93 0v510h86v-510h-86z" />
    <glyph glyph-name="Lslash" unicode="&#x141;" 
d="M96 0v276l-52 -35v80l52 35v368h98v-313l250 169v-80l-250 -169v-251h562v-80h-660z" />
    <glyph glyph-name="lslash" unicode="&#x142;" horiz-adv-x="272" 
d="M93 0v320l-78 -61v77l78 61v327h86v-261l78 60v-77l-78 -60v-386h-86z" />
    <glyph glyph-name="OE" unicode="&#x152;" horiz-adv-x="1332" 
d="M711 226v272q0 87 -50 124q-40 30 -120 30h-245q-80 0 -120 -30q-50 -37 -50 -124v-272q0 -87 50 -124q40 -30 120 -30h245q80 0 120 30q50 37 50 124zM711 0v74h-2q-15 -51 -62 -69q-31 -13 -87 -13h-274q-143 0 -202 67q-56 62 -56 204v198q0 142 56 204q59 67 202 67
h274q56 0 87 -12q47 -19 62 -70h2v74h575v-80h-477v-231h458v-80h-458v-253h495v-80h-593z" />
    <glyph glyph-name="oe" unicode="&#x153;" horiz-adv-x="1333" 
d="M1199 310v34q0 104 -179 104h-126q-99 0 -132 -26t-39 -112h476zM48 199v112q0 117 80 167q66 40 202 40h86q122 0 168 -11q63 -16 100 -69q31 44 78 61q55 19 170 19h88q129 0 190 -42q75 -52 75 -179v-57h-562v-32q0 -85 47 -116q44 -30 159 -30h113q85 0 117 17
q36 19 40 75h86v-10q0 -84 -68 -120q-61 -32 -189 -32h-182q-59 0 -108 34q-39 26 -54 57q-22 -60 -91 -80q-39 -11 -120 -11h-143q-136 0 -202 41q-80 49 -80 166zM637 204v102q0 85 -48 116q-41 26 -145 26h-140q-84 0 -122 -26q-48 -33 -48 -116v-102q0 -83 48 -116
q38 -26 122 -26h146q96 0 137 26q50 32 50 116z" />
    <glyph glyph-name="Scedilla" unicode="&#x15e;" horiz-adv-x="656" 
d="M78 175v53h92v-51q0 -55 35.5 -80t124.5 -25h304q107 0 145.5 28t38.5 106q0 68 -33 91t-125 23h-186q-239 0 -311 33q-86 40 -86 177q0 118 74 163q65 39 226 39h211q175 0 243 -47q61 -42 61 -144v-25h-92q-1 64 -14 86q-17 30 -71.5 40t-185.5 10h-104
q-153 0 -199 -20q-57 -24 -57 -109q0 -67 34.5 -91t145.5 -24h290q143 0 207 -42.5t64 -135.5v-47q0 -120 -91 -162q-62 -29 -200 -29h-272q-127 0 -188 32q-81 43 -81 151zM51 -252l19 38q41 -19 84 -19q86 0 86 59q0 27 -19.5 40.5t-46.5 13.5q-5 0 -55 -10l-21 18l83 112
h51l-65 -80l2 -2q24 8 43 8q47 0 77.5 -25t30.5 -71q0 -56 -49 -85q-40 -24 -99 -24q-57 0 -121 27z" />
    <glyph glyph-name="scedilla" unicode="&#x15f;" horiz-adv-x="383" 
d="M62 145v31h80v-25q0 -48 27.5 -68.5t93.5 -20.5h184q104 0 133 12q37 15 37 69v4q0 41 -20 56q-25 20 -97 20h-265q-90 0 -128 31.5t-38 104.5v30q0 67 50 96q58 33 209 33h132q133 0 183 -37q38 -28 38 -91v-27h-80v5q0 54 -38 69q-26 11 -108 11h-150
q-93 0 -121.5 -13.5t-28.5 -56.5v-19q0 -35 18 -49q23 -17 86 -17h227q113 0 157 -24q60 -32 60 -127v-2q0 -95 -79 -128q-49 -20 -158 -20h-158q-125 0 -171 19q-75 32 -75 134zM-46 -252l19 38q41 -19 84 -19q86 0 86 59q0 27 -19.5 40.5t-46.5 13.5q-5 0 -55 -10l-21 18
l83 112h51l-65 -80l2 -2q24 8 43 8q47 0 77.5 -25t30.5 -71q0 -56 -49 -85q-40 -24 -99 -24q-57 0 -121 27z" />
    <glyph glyph-name="Scaron" unicode="&#x160;" horiz-adv-x="987" 
d="M78 175v53h92v-51q0 -55 35.5 -80t124.5 -25h304q107 0 145.5 28t38.5 106q0 68 -33 91t-125 23h-186q-239 0 -311 33q-86 40 -86 177q0 118 74 163q65 39 226 39h211q175 0 243 -47q61 -42 61 -144v-25h-92q-1 64 -14 86q-17 30 -71.5 40t-185.5 10h-104
q-153 0 -199 -20q-57 -24 -57 -109q0 -67 34.5 -91t145.5 -24h290q143 0 207 -42.5t64 -135.5v-47q0 -120 -91 -162q-62 -29 -200 -29h-272q-127 0 -188 32q-81 43 -81 151zM449 772l-147 185h81l110 -139l112 139h81l-149 -185h-88z" />
    <glyph glyph-name="scaron" unicode="&#x161;" 
d="M62 145v31h80v-25q0 -48 27.5 -68.5t93.5 -20.5h184q104 0 133 12q37 15 37 69v4q0 41 -20 56q-25 20 -97 20h-265q-90 0 -128 31.5t-38 104.5v30q0 67 50 96q58 33 209 33h132q133 0 183 -37q38 -28 38 -91v-27h-80v5q0 54 -38 69q-26 11 -108 11h-150
q-93 0 -121.5 -13.5t-28.5 -56.5v-19q0 -35 18 -49q23 -17 86 -17h227q113 0 157 -24q60 -32 60 -127v-2q0 -95 -79 -128q-49 -20 -158 -20h-158q-125 0 -171 19q-75 32 -75 134zM338 588l-147 185h81l110 -139l112 139h81l-149 -185h-88z" />
    <glyph glyph-name="ch903" unicode="&#x168;" horiz-adv-x="1042" 
d="M96 182v542h98v-541q0 -69 46 -93q33 -18 111 -18h340q78 0 111 18q46 24 46 93v541h98v-542q0 -117 -74 -159q-56 -31 -184 -31h-334q-128 0 -183 31q-75 42 -75 159zM698 873h45q-25 -41 -75 -76q-55 -39 -97 -38q-27 1 -70 29.5t-67 28.5q-43 1 -86 -57h-45
q27 42 75 76q54 39 97 38q29 -1 73.5 -29.5t65.5 -28.5q41 -1 84 57z" />
    <glyph glyph-name="ch904" unicode="&#x169;" horiz-adv-x="791" 
d="M630 0v88h-2q-25 -60 -85 -82q-41 -14 -121 -14h-129q-212 0 -212 173v345h86v-324q0 -79 57 -106q38 -18 131 -18h22q126 0 172 20q75 32 75 138v290h86v-510h-80zM554 657h41q-24 -37 -67 -68q-50 -35 -88 -34q-25 1 -63.5 26.5t-59.5 25.5q-39 1 -78 -51h-40
q23 37 67 69q49 34 88 33q26 -1 65 -26.5t60 -25.5q36 -1 75 51z" />
    <glyph glyph-name="Ydieresis" unicode="&#x178;" horiz-adv-x="964" 
d="M433 0v306l-415 418h132l332 -336l332 336h132l-415 -418v-306h-98zM334 786v112h86v-112h-86zM544 786v112h86v-112h-86z" />
    <glyph glyph-name="Zcaron" unicode="&#x17d;" horiz-adv-x="913" 
d="M42 0v76l661 568h-640v80h794v-70l-664 -574h678v-80h-829zM412 772l-147 185h81l110 -139l112 139h81l-149 -185h-88z" />
    <glyph glyph-name="zcaron" unicode="&#x17e;" horiz-adv-x="667" 
d="M45 0v70l453 368v2h-438v70h556v-70l-453 -368v-2h459v-70h-577zM289 588l-147 185h81l110 -139l112 139h81l-149 -185h-88z" />
    <glyph glyph-name="florin" unicode="&#x192;" horiz-adv-x="964" 
d="M49 -172v74q54 -10 82 -10q126 0 182 49q45 40 73 149l59 233h-183v70h199l30 122q30 121 104 173q62 44 166 44q77 0 148 -10v-71q-92 11 -135 11q-88 0 -127 -32q-50 -40 -80 -164l-18 -73h201v-70h-217l-64 -262q-30 -124 -87 -173q-77 -66 -251 -66q-56 0 -82 6z" />
    <glyph glyph-name="glyph277" unicode="&#x1a0;" horiz-adv-x="1087" 
d="M912 226v272q0 154 -170 154h-397q-170 0 -170 -154v-272q0 -154 170 -154h397q170 0 170 154zM949 671q61 -62 61 -210v-198q0 -143 -57 -205q-59 -66 -201 -66h-417q-141 0 -201 66q-57 63 -57 205v198q0 142 58.5 206.5t199.5 64.5h417q108 0 166 -37q80 42 95 82
q45 13 61 13q19 0 19 -13q0 -33 -57 -70q-44 -29 -87 -36z" />
    <glyph glyph-name="glyph278" unicode="&#x1a1;" horiz-adv-x="815" 
d="M665 204v102q0 83 -46 115q-38 27 -124 27h-175q-85 0 -124 -27q-46 -33 -46 -115v-102q0 -82 46 -115q39 -27 124 -27h175q86 0 124 27q46 32 46 115zM633 496l42 20q34 24 43 48q41 12 54 12q24 0 16 -21q-10 -27 -46 -52q-30 -21 -63 -30q72 -51 72 -162v-112
q0 -120 -86 -169q-66 -38 -196 -38h-123q-130 0 -196 38q-86 49 -86 169v112q0 121 86 170q65 37 196 37h123q102 0 164 -22z" />
    <glyph glyph-name="glyph279" unicode="&#x1af;" horiz-adv-x="1042" 
d="M946 675v-493q0 -117 -74 -159q-56 -31 -184 -31h-334q-128 0 -183 31q-75 42 -75 159v542h98v-541q0 -69 46 -93q33 -18 111 -18h340q78 0 111 18q46 24 46 93v541h95q39 27 48 53q45 13 61 13q19 0 19 -13q0 -29 -48 -64q-36 -26 -77 -38z" />
    <glyph glyph-name="glyph280" unicode="&#x1b0;" horiz-adv-x="791" 
d="M710 472v-472h-80v88h-2q-25 -60 -85 -82q-41 -14 -121 -14h-129q-212 0 -212 173v345h86v-324q0 -79 57 -106q38 -18 131 -18h22q126 0 172 20q75 32 75 138v290h71l12 6q34 24 43 48q41 12 54 12q24 0 16 -21q-10 -28 -46 -52q-30 -21 -64 -31z" />
    <glyph glyph-name="circumflex" unicode="&#x2c6;" horiz-adv-x="272" 
d="M-56 588l151 185h82l151 -185h-80l-113 139l-113 -139h-78z" />
    <glyph glyph-name="caron" unicode="&#x2c7;" horiz-adv-x="272" 
d="M91 588l-147 185h81l110 -139l112 139h81l-149 -185h-88z" />
    <glyph glyph-name="breve" unicode="&#x2d8;" horiz-adv-x="272" 
d="M-56 764h52q14 -106 141 -106q116 0 142 106h49q-9 -83 -62 -126.5t-138 -43.5q-79 0 -127.5 45.5t-56.5 124.5z" />
    <glyph glyph-name="dotaccent" unicode="&#x2d9;" horiz-adv-x="272" 
d="M93 602v112h86v-112h-86z" />
    <glyph glyph-name="ring" unicode="&#x2da;" horiz-adv-x="272" 
d="M59 723q0 -32 22.5 -54.5t54.5 -22.5t54.5 22.5t22.5 54.5t-22.5 54.5t-54.5 22.5t-54.5 -22.5t-22.5 -54.5zM1 723q0 56 39.5 95.5t95.5 39.5t95.5 -39.5t39.5 -95.5t-39.5 -95.5t-95.5 -39.5t-95.5 39.5t-39.5 95.5z" />
    <glyph glyph-name="ogonek" unicode="&#x2db;" horiz-adv-x="272" 
d="M142 0h51q-77 -79 -77 -123q0 -45 53 -45q25 0 45 8l12 -34q-33 -14 -85 -14q-95 0 -95 71q0 34 29 75t67 62z" />
    <glyph glyph-name="tilde" unicode="&#x2dc;" horiz-adv-x="272" 
d="M294 737v0h50q-2 -49 -37 -89.5t-80 -40.5q-36 0 -99 30.5t-92 30.5q-43 0 -58 -66h-50q2 49 37 89.5t80 40.5q37 0 100.5 -30.5t90.5 -30.5q43 0 58 66z" />
    <glyph glyph-name="hungarumlaut" unicode="&#x2dd;" horiz-adv-x="272" 
d="M164 588l148 185h103l-184 -185h-67zM-60 588l148 185h103l-184 -185h-67z" />
    <glyph glyph-name="glyph281" unicode="&#x1ea0;" horiz-adv-x="1012" 
d="M997 0h-111l-90 153h-580l-90 -153h-111l430 724h122zM555 -18l18 -46l-18 -44l-49 -18l-51 18l-17 45l17 45l51 18zM749 233l-243 411l-243 -411h486z" />
    <glyph glyph-name="glyph282" unicode="&#x1ea1;" 
d="M608 0v51h-2q-22 -44 -80 -55q-22 -4 -102 -4h-206q-85 0 -124.5 35t-39.5 118v34q0 82 60 109q46 21 172 21h138q71 0 101 -7q55 -12 81 -54h2v96q0 66 -45 87q-36 17 -145 17h-126q-58 0 -84 -8q-45 -15 -45 -60v-18h-86v25q0 82 71 111q46 20 142 20h136
q136 0 194 -31q74 -39 74 -145v-342h-86zM608 137v23q0 57 -73 73q-28 6 -121 6h-132q-71 0 -95 -8q-47 -16 -47 -72v-16q0 -55 44 -72q25 -9 94 -9h114q100 0 128 5q88 14 88 70zM416 -65l16 -41l-16 -39l-44 -17l-46 17l-15 40l15 40l46 17z" />
    <glyph glyph-name="glyph283" unicode="&#x1ea2;" horiz-adv-x="1012" 
d="M15 0l430 724h122l430 -724h-111l-90 153h-580l-90 -153h-111zM749 233l-243 411l-243 -411h486zM461 986q30 33 96 33q68 0 88 -53q6 -16 6 -30q0 -56 -61 -78q-17 -6 -40 -6h-20l-7 -53l-17 -19l-22 77l26 27q19 0 43 6q39 10 39 43q0 20 -14 31.5t-34 11.5
q-38 0 -62 -26l-25 -27q-2 21 -2 35q0 24 6 28z" />
    <glyph glyph-name="glyph284" unicode="&#x1ea3;" 
d="M608 0v51h-2q-22 -44 -80 -55q-22 -4 -102 -4h-206q-85 0 -124.5 35t-39.5 118v34q0 82 60 109q46 21 172 21h138q71 0 101 -7q55 -12 81 -54h2v96q0 66 -45 87q-36 17 -145 17h-126q-58 0 -84 -8q-45 -15 -45 -60v-18h-86v25q0 82 71 111q46 20 142 20h136
q136 0 194 -31q74 -39 74 -145v-342h-86zM608 137v23q0 57 -73 73q-28 6 -121 6h-132q-71 0 -95 -8q-47 -16 -47 -72v-16q0 -55 44 -72q25 -9 94 -9h114q100 0 128 5q88 14 88 70zM329 796q15 15 33 20q29 11 59 11q64 0 83 -50q6 -16 6 -29q0 -53 -58 -74q-17 -6 -38 -6
h-19l-7 -50l-16 -18l-21 73l25 26q13 0 41 5q36 12 36 42q0 7 -2 13q-10 27 -42 27q-37 0 -59 -24l-24 -26q-2 21 -2 35q0 21 5 25z" />
    <glyph glyph-name="glyph285" unicode="&#x1ea4;" horiz-adv-x="1012" 
d="M15 0l430 724h122l430 -724h-111l-90 153h-580l-90 -153h-111zM749 233l-243 411l-243 -411h486zM323 749l146 147h74l146 -147h-82l-102 105l-102 -105h-80zM665 855l108 167h112l-190 -167l-15 -1z" />
    <glyph glyph-name="glyph286" unicode="&#x1ea5;" 
d="M608 0v51h-2q-22 -44 -80 -55q-22 -4 -102 -4h-206q-85 0 -124.5 35t-39.5 118v34q0 82 60 109q46 21 172 21h138q71 0 101 -7q55 -12 81 -54h2v96q0 66 -45 87q-36 17 -145 17h-126q-58 0 -84 -8q-45 -15 -45 -60v-18h-86v25q0 82 71 111q46 20 142 20h136
q136 0 194 -31q74 -39 74 -145v-342h-86zM608 137v23q0 57 -73 73q-28 6 -121 6h-132q-71 0 -95 -8q-47 -16 -47 -72v-16q0 -55 44 -72q25 -9 94 -9h114q100 0 128 5q88 14 88 70zM208 552l131 132h67l131 -132h-73l-92 94l-92 -94h-72zM516 647l97 150h101l-171 -150
l-14 -1z" />
    <glyph glyph-name="glyph287" unicode="&#x1ea6;" horiz-adv-x="1012" 
d="M15 0l430 724h122l430 -724h-111l-90 153h-580l-90 -153h-111zM749 233l-243 411l-243 -411h486zM323 749l146 147h74l146 -147h-82l-102 105l-102 -105h-80zM349 855l-15 -1l-15 1l-190 167h112z" />
    <glyph glyph-name="glyph288" unicode="&#x1ea7;" 
d="M608 0v51h-2q-22 -44 -80 -55q-22 -4 -102 -4h-206q-85 0 -124.5 35t-39.5 118v34q0 82 60 109q46 21 172 21h138q71 0 101 -7q55 -12 81 -54h2v96q0 66 -45 87q-36 17 -145 17h-126q-58 0 -84 -8q-45 -15 -45 -60v-18h-86v25q0 82 71 111q46 20 142 20h136
q136 0 194 -31q74 -39 74 -145v-342h-86zM608 137v23q0 57 -73 73q-28 6 -121 6h-132q-71 0 -95 -8q-47 -16 -47 -72v-16q0 -55 44 -72q25 -9 94 -9h114q100 0 128 5q88 14 88 70zM209 552l131 132h67l131 -132h-74l-92 94l-91 -94h-72zM232 647l-13 -1l-14 1l-171 150h101z
" />
    <glyph glyph-name="glyph289" unicode="&#x1ea8;" horiz-adv-x="1012" 
d="M15 0l430 724h122l430 -724h-111l-90 153h-580l-90 -153h-111zM749 233l-243 411l-243 -411h486zM323 749l146 147h74l146 -147h-82l-102 105l-102 -105h-80zM618 1060q30 33 96 33q68 0 88 -53q6 -16 6 -30q0 -56 -61 -78q-17 -6 -40 -6h-20l-7 -53l-17 -19l-22 77
l26 27q19 0 43 6q39 10 39 43q0 20 -14 31.5t-34 11.5q-38 0 -62 -26l-25 -27q-2 21 -2 35q0 24 6 28z" />
    <glyph glyph-name="glyph290" unicode="&#x1ea9;" 
d="M608 0v51h-2q-22 -44 -80 -55q-22 -4 -102 -4h-206q-85 0 -124.5 35t-39.5 118v34q0 82 60 109q46 21 172 21h138q71 0 101 -7q55 -12 81 -54h2v96q0 66 -45 87q-36 17 -145 17h-126q-58 0 -84 -8q-45 -15 -45 -60v-18h-86v25q0 82 71 111q46 20 142 20h136
q136 0 194 -31q74 -39 74 -145v-342h-86zM608 137v23q0 57 -73 73q-28 6 -121 6h-132q-71 0 -95 -8q-47 -16 -47 -72v-16q0 -55 44 -72q25 -9 94 -9h114q100 0 128 5q88 14 88 70zM207 552l132 132h66l132 -132h-74l-92 94l-92 -94h-72zM487 853q15 15 33 20q29 11 59 11
q64 0 83 -50q6 -16 6 -29q0 -53 -58 -74q-17 -6 -38 -6h-19l-7 -50l-16 -18l-21 73l25 26q13 0 41 5q36 12 36 42q0 7 -2 13q-10 27 -42 27q-37 0 -59 -24l-24 -26q-2 21 -2 35q0 21 5 25z" />
    <glyph glyph-name="glyph291" unicode="&#x1eaa;" horiz-adv-x="1012" 
d="M15 0l430 724h122l430 -724h-111l-90 153h-580l-90 -153h-111zM749 233l-243 411l-243 -411h486zM323 749l146 147h74l146 -147h-82l-102 105l-102 -105h-80zM683 1053h45q-25 -41 -75 -76q-55 -39 -97 -38q-27 1 -70 29.5t-67 28.5q-43 1 -86 -57h-45q27 42 75 76
q54 39 97 38q29 -1 73.5 -29.5t65.5 -28.5q41 -1 84 57z" />
    <glyph glyph-name="glyph292" unicode="&#x1eab;" 
d="M608 0v51h-2q-22 -44 -80 -55q-22 -4 -102 -4h-206q-85 0 -124.5 35t-39.5 118v34q0 82 60 109q46 21 172 21h138q71 0 101 -7q55 -12 81 -54h2v96q0 66 -45 87q-36 17 -145 17h-126q-58 0 -84 -8q-45 -15 -45 -60v-18h-86v25q0 82 71 111q46 20 142 20h136
q136 0 194 -31q74 -39 74 -145v-342h-86zM608 137v23q0 57 -73 73q-28 6 -121 6h-132q-71 0 -95 -8q-47 -16 -47 -72v-16q0 -55 44 -72q25 -9 94 -9h114q100 0 128 5q88 14 88 70zM208 551l132 132h66l132 -132h-74l-92 94l-92 -94h-72zM532 824h41q-24 -37 -67 -68
q-50 -35 -88 -34q-25 1 -63.5 26.5t-59.5 25.5q-39 1 -78 -51h-40q23 37 67 69q49 34 88 33q26 -1 65 -26.5t60 -25.5q36 -1 75 51z" />
    <glyph glyph-name="glyph293" unicode="&#x1eac;" horiz-adv-x="1012" 
d="M15 0l430 724h122l430 -724h-111l-90 153h-580l-90 -153h-111zM749 233l-243 411l-243 -411h486zM323 749l146 147h74l146 -147h-82l-102 105l-102 -105h-80zM555 -18l18 -46l-18 -44l-49 -18l-51 18l-17 45l17 45l51 18z" />
    <glyph glyph-name="glyph294" unicode="&#x1ead;" 
d="M608 0v51h-2q-22 -44 -80 -55q-22 -4 -102 -4h-206q-85 0 -124.5 35t-39.5 118v34q0 82 60 109q46 21 172 21h138q71 0 101 -7q55 -12 81 -54h2v96q0 66 -45 87q-36 17 -145 17h-126q-58 0 -84 -8q-45 -15 -45 -60v-18h-86v25q0 82 71 111q46 20 142 20h136
q136 0 194 -31q74 -39 74 -145v-342h-86zM608 137v23q0 57 -73 73q-28 6 -121 6h-132q-71 0 -95 -8q-47 -16 -47 -72v-16q0 -55 44 -72q25 -9 94 -9h114q100 0 128 5q88 14 88 70zM209 552l131 132h67l131 -132h-74l-92 94l-91 -94h-72zM416 -65l16 -41l-16 -39l-44 -17
l-46 17l-15 40l15 40l46 17z" />
    <glyph glyph-name="glyph295" unicode="&#x1eae;" horiz-adv-x="1012" 
d="M15 0l430 724h122l430 -724h-111l-90 153h-580l-90 -153h-111zM749 233l-243 411l-243 -411h486zM680 856q-24 -89 -174 -87t-173 89q-5 2 -5 10q0 14 16 42h26q11 -84 138 -86q115 -2 138 86h24q15 -28 15 -43q0 -8 -5 -11zM491 911l108 167h112l-190 -167l-15 -1z" />
    <glyph glyph-name="glyph296" unicode="&#x1eaf;" 
d="M608 0v51h-2q-22 -44 -80 -55q-22 -4 -102 -4h-206q-85 0 -124.5 35t-39.5 118v34q0 82 60 109q46 21 172 21h138q71 0 101 -7q55 -12 81 -54h2v96q0 66 -45 87q-36 17 -145 17h-126q-58 0 -84 -8q-45 -15 -45 -60v-18h-86v25q0 82 71 111q46 20 142 20h136
q136 0 194 -31q74 -39 74 -145v-342h-86zM608 137v23q0 57 -73 73q-28 6 -121 6h-132q-71 0 -95 -8q-47 -16 -47 -72v-16q0 -55 44 -72q25 -9 94 -9h114q100 0 128 5q88 14 88 70zM538 655q-23 -85 -165 -83t-164 85q-4 2 -4 9q0 14 14 40h25q11 -80 131 -82q109 -2 131 82
h23q14 -27 14 -41q0 -8 -5 -10zM359 707l102 159h107l-181 -159l-14 -1z" />
    <glyph glyph-name="glyph297" unicode="&#x1eb0;" horiz-adv-x="1012" 
d="M15 0l430 724h122l430 -724h-111l-90 153h-580l-90 -153h-111zM749 233l-243 411l-243 -411h486zM680 856q-24 -89 -174 -87t-173 89q-5 2 -5 10q0 14 16 42h26q11 -84 138 -86q115 -2 138 86h24q15 -28 15 -43q0 -8 -5 -11zM521 911l-15 -1l-15 1l-190 167h112z" />
    <glyph glyph-name="glyph298" unicode="&#x1eb1;" 
d="M608 0v51h-2q-22 -44 -80 -55q-22 -4 -102 -4h-206q-85 0 -124.5 35t-39.5 118v34q0 82 60 109q46 21 172 21h138q71 0 101 -7q55 -12 81 -54h2v96q0 66 -45 87q-36 17 -145 17h-126q-58 0 -84 -8q-45 -15 -45 -60v-18h-86v25q0 82 71 111q46 20 142 20h136
q136 0 194 -31q74 -39 74 -145v-342h-86zM608 137v23q0 57 -73 73q-28 6 -121 6h-132q-71 0 -95 -8q-47 -16 -47 -72v-16q0 -55 44 -72q25 -9 94 -9h114q100 0 128 5q88 14 88 70zM537 655q-23 -85 -165 -83t-164 85q-5 2 -5 9q0 14 15 40h25q10 -80 131 -82q109 -2 131 82
h23q14 -27 14 -41q0 -8 -5 -10zM386 707l-14 -1l-14 1l-181 159h107z" />
    <glyph glyph-name="glyph299" unicode="&#x1eb2;" horiz-adv-x="1012" 
d="M15 0l430 724h122l430 -724h-111l-90 153h-580l-90 -153h-111zM749 233l-243 411l-243 -411h486zM680 856q-24 -89 -174 -87t-173 89q-5 2 -5 10q0 14 16 42h26q11 -84 138 -86q115 -2 138 86h24q15 -28 15 -43q0 -8 -5 -11zM461 1095q30 33 96 33q68 0 88 -53
q6 -16 6 -30q0 -56 -61 -78q-17 -6 -40 -6h-20l-7 -53l-17 -19l-22 77l26 27q19 0 43 6q39 10 39 43q0 20 -14 31.5t-34 11.5q-38 0 -62 -26l-25 -27q-2 21 -2 35q0 24 6 28z" />
    <glyph glyph-name="glyph300" unicode="&#x1eb3;" 
d="M608 0v51h-2q-22 -44 -80 -55q-22 -4 -102 -4h-206q-85 0 -124.5 35t-39.5 118v34q0 82 60 109q46 21 172 21h138q71 0 101 -7q55 -12 81 -54h2v96q0 66 -45 87q-36 17 -145 17h-126q-58 0 -84 -8q-45 -15 -45 -60v-18h-86v25q0 82 71 111q46 20 142 20h136
q136 0 194 -31q74 -39 74 -145v-342h-86zM608 137v23q0 57 -73 73q-28 6 -121 6h-132q-71 0 -95 -8q-47 -16 -47 -72v-16q0 -55 44 -72q25 -9 94 -9h114q100 0 128 5q88 14 88 70zM536 655q-23 -85 -165 -83t-165 85q-4 2 -4 9q0 14 15 40h25q10 -79 131 -81q109 -2 131 81
h22q14 -27 14 -41q0 -7 -4 -10zM328 902q27 32 91 32q65 0 84 -51q6 -16 6 -29q0 -30 -22.5 -52t-53.5 -26q-8 -1 -21 -1h-19l-6 -51l-16 -18l-21 73l25 26q16 0 40 6q38 9 38 41q0 19 -13.5 30t-32.5 11q-34 0 -58 -25q-13 -13 -25 -26q-2 19 -2 32q0 23 6 28z" />
    <glyph glyph-name="glyph301" unicode="&#x1eb4;" horiz-adv-x="1012" 
d="M15 0l430 724h122l430 -724h-111l-90 153h-580l-90 -153h-111zM749 233l-243 411l-243 -411h486zM680 856q-24 -89 -174 -87t-173 89q-5 2 -5 10q0 14 16 42h26q11 -84 138 -86q115 -2 138 86h24q15 -28 15 -43q0 -8 -5 -11zM878 1043h45q-25 -41 -75 -76
q-55 -39 -97 -38q-27 1 -70 29.5t-67 28.5q-43 1 -86 -57h-45q27 42 75 76q54 39 97 38q29 -1 73.5 -29.5t65.5 -28.5q41 -1 84 57z" />
    <glyph glyph-name="glyph302" unicode="&#x1eb5;" 
d="M608 0v51h-2q-22 -44 -80 -55q-22 -4 -102 -4h-206q-85 0 -124.5 35t-39.5 118v34q0 82 60 109q46 21 172 21h138q71 0 101 -7q55 -12 81 -54h2v96q0 66 -45 87q-36 17 -145 17h-126q-58 0 -84 -8q-45 -15 -45 -60v-18h-86v25q0 82 71 111q46 20 142 20h136
q136 0 194 -31q74 -39 74 -145v-342h-86zM608 137v23q0 57 -73 73q-28 6 -121 6h-132q-71 0 -95 -8q-47 -16 -47 -72v-16q0 -55 44 -72q25 -9 94 -9h114q100 0 128 5q88 14 88 70zM537 654q-23 -85 -165 -83q-143 2 -165 85q-4 2 -4 9q0 13 15 40h24q12 -80 131 -81
q110 -1 131 81h23q14 -27 14 -41q0 -7 -4 -10zM725 832h43q-25 -40 -71 -73q-52 -37 -93 -36q-25 1 -65.5 28t-64.5 27q-41 1 -82 -54h-42q25 39 71 72q51 36 92 36q28 0 70 -27.5t62 -27.5q39 -1 80 55z" />
    <glyph glyph-name="glyph303" unicode="&#x1eb6;" horiz-adv-x="1012" 
d="M15 0l430 724h122l430 -724h-111l-90 153h-580l-90 -153h-111zM749 233l-243 411l-243 -411h486zM680 856q-24 -89 -174 -87t-173 89q-5 2 -5 10q0 14 16 42h26q11 -84 138 -86q115 -2 138 86h24q15 -28 15 -43q0 -8 -5 -11zM555 -18l18 -46l-18 -44l-49 -18l-51 18
l-17 45l17 45l51 18z" />
    <glyph glyph-name="glyph304" unicode="&#x1eb7;" 
d="M608 0v51h-2q-22 -44 -80 -55q-22 -4 -102 -4h-206q-85 0 -124.5 35t-39.5 118v34q0 82 60 109q46 21 172 21h138q71 0 101 -7q55 -12 81 -54h2v96q0 66 -45 87q-36 17 -145 17h-126q-58 0 -84 -8q-45 -15 -45 -60v-18h-86v25q0 82 71 111q46 20 142 20h136
q136 0 194 -31q74 -39 74 -145v-342h-86zM608 137v23q0 57 -73 73q-28 6 -121 6h-132q-71 0 -95 -8q-47 -16 -47 -72v-16q0 -55 44 -72q25 -9 94 -9h114q100 0 128 5q88 14 88 70zM416 -65l16 -41l-16 -39l-44 -17l-46 17l-15 40l15 40l46 17zM538 655q-23 -85 -165 -83
t-164 85q-4 2 -4 9q0 14 14 40h25q11 -80 131 -82q109 -2 131 82h23q14 -27 14 -41q0 -8 -5 -10z" />
    <glyph glyph-name="glyph305" unicode="&#x1eb8;" horiz-adv-x="864" 
d="M96 0v724h711v-80h-613v-231h589v-80h-589v-253h617v-80h-715zM499 -60l18 -46l-18 -44l-49 -18l-51 18l-17 45l17 45l51 18z" />
    <glyph glyph-name="glyph306" unicode="&#x1eb9;" 
d="M625 310v34q0 104 -179 104h-126q-97 0 -129 -22q-41 -27 -47 -116h481zM58 201v111q0 125 79 172q57 34 171 34h138q130 0 192 -44q73 -51 73 -177v-57h-567v-32q0 -92 60 -124q43 -22 146 -22h118q75 0 104 11q49 19 53 81h86v-10q0 -94 -88 -129q-57 -23 -169 -23
h-156q-108 0 -162 34q-78 49 -78 175zM426 -65l16 -41l-16 -39l-44 -17l-46 17l-15 40l15 40l46 17z" />
    <glyph glyph-name="glyph307" unicode="&#x1eba;" horiz-adv-x="864" 
d="M96 0v724h711v-80h-613v-231h589v-80h-589v-253h617v-80h-715zM405 996q30 33 96 33q68 0 88 -53q6 -16 6 -30q0 -56 -61 -78q-17 -6 -40 -6h-20l-7 -53l-17 -19l-22 77l26 27q19 0 43 6q39 10 39 43q0 20 -14 31.5t-34 11.5q-38 0 -62 -26l-25 -27q-2 21 -2 35
q0 24 6 28z" />
    <glyph glyph-name="glyph308" unicode="&#x1ebb;" 
d="M625 310v34q0 104 -179 104h-126q-97 0 -129 -22q-41 -27 -47 -116h481zM58 201v111q0 125 79 172q57 34 171 34h138q130 0 192 -44q73 -51 73 -177v-57h-567v-32q0 -92 60 -124q43 -22 146 -22h118q75 0 104 11q49 19 53 81h86v-10q0 -94 -88 -129q-57 -23 -169 -23
h-156q-108 0 -162 34q-78 49 -78 175zM339 796q15 15 33 20q29 11 59 11q64 0 83 -50q6 -16 6 -29q0 -53 -58 -74q-17 -6 -38 -6h-19l-7 -50l-16 -18l-21 73l25 26q13 0 41 5q36 12 36 42q0 7 -2 13q-10 27 -42 27q-37 0 -59 -24l-24 -26q-2 21 -2 35q0 21 5 25z" />
    <glyph glyph-name="glyph309" unicode="&#x1ebc;" horiz-adv-x="864" 
d="M96 0v724h711v-80h-613v-231h589v-80h-589v-253h617v-80h-715zM628 913h45q-25 -41 -75 -76q-55 -39 -97 -38q-27 1 -70 29.5t-67 28.5q-43 1 -86 -57h-45q27 42 75 76q54 39 97 38q29 -1 73.5 -29.5t65.5 -28.5q41 -1 84 57z" />
    <glyph glyph-name="glyph310" unicode="&#x1ebd;" 
d="M625 310v34q0 104 -179 104h-126q-97 0 -129 -22q-41 -27 -47 -116h481zM58 201v111q0 125 79 172q57 34 171 34h138q130 0 192 -44q73 -51 73 -177v-57h-567v-32q0 -92 60 -124q43 -22 146 -22h118q75 0 104 11q49 19 53 81h86v-10q0 -94 -88 -129q-57 -23 -169 -23
h-156q-108 0 -162 34q-78 49 -78 175zM542 701h41q-24 -37 -67 -68q-50 -35 -88 -34q-25 1 -63.5 26.5t-59.5 25.5q-39 1 -78 -51h-40q23 37 67 69q49 34 88 33q26 -1 65 -26.5t60 -25.5q36 -1 75 51z" />
    <glyph glyph-name="glyph311" unicode="&#x1ebe;" horiz-adv-x="864" 
d="M96 0v724h711v-80h-613v-231h589v-80h-589v-253h617v-80h-715zM268 760l146 147h74l146 -147h-82l-102 105l-102 -105h-80zM610 866l108 167h112l-190 -167l-15 -1z" />
    <glyph glyph-name="glyph312" unicode="&#x1ebf;" 
d="M625 310v34q0 104 -179 104h-126q-97 0 -129 -22q-41 -27 -47 -116h481zM58 201v111q0 125 79 172q57 34 171 34h138q130 0 192 -44q73 -51 73 -177v-57h-567v-32q0 -92 60 -124q43 -22 146 -22h118q75 0 104 11q49 19 53 81h86v-10q0 -94 -88 -129q-57 -23 -169 -23
h-156q-108 0 -162 34q-78 49 -78 175zM218 552l131 132h67l131 -132h-73l-92 94l-92 -94h-72zM526 647l97 150h101l-171 -150l-14 -1z" />
    <glyph glyph-name="glyph313" unicode="&#x1ec0;" horiz-adv-x="864" 
d="M96 0v724h711v-80h-613v-231h589v-80h-589v-253h617v-80h-715zM268 759l146 147h74l146 -147h-82l-102 105l-102 -105h-80zM294 865l-15 -1l-15 1l-190 167h112z" />
    <glyph glyph-name="glyph314" unicode="&#x1ec1;" 
d="M625 310v34q0 104 -179 104h-126q-97 0 -129 -22q-41 -27 -47 -116h481zM58 201v111q0 125 79 172q57 34 171 34h138q130 0 192 -44q73 -51 73 -177v-57h-567v-32q0 -92 60 -124q43 -22 146 -22h118q75 0 104 11q49 19 53 81h86v-10q0 -94 -88 -129q-57 -23 -169 -23
h-156q-108 0 -162 34q-78 49 -78 175zM219 551l131 132h67l131 -132h-74l-92 94l-91 -94h-72zM242 646l-13 -1l-14 1l-171 150h101z" />
    <glyph glyph-name="glyph315" unicode="&#x1ec2;" horiz-adv-x="864" 
d="M96 0v724h711v-80h-613v-231h589v-80h-589v-253h617v-80h-715zM267 759l146 147h74l146 -147h-82l-102 105l-102 -105h-80zM562 1070q30 33 96 33q68 0 88 -53q6 -16 6 -30q0 -56 -61 -78q-17 -6 -40 -6h-20l-7 -53l-17 -19l-22 77l26 27q19 0 43 6q39 10 39 43
q0 20 -14 31.5t-34 11.5q-38 0 -62 -26l-25 -27q-2 21 -2 35q0 24 6 28z" />
    <glyph glyph-name="glyph316" unicode="&#x1ec3;" 
d="M625 310v34q0 104 -179 104h-126q-97 0 -129 -22q-41 -27 -47 -116h481zM58 201v111q0 125 79 172q57 34 171 34h138q130 0 192 -44q73 -51 73 -177v-57h-567v-32q0 -92 60 -124q43 -22 146 -22h118q75 0 104 11q49 19 53 81h86v-10q0 -94 -88 -129q-57 -23 -169 -23
h-156q-108 0 -162 34q-78 49 -78 175zM217 552l132 132h66l132 -132h-74l-92 94l-92 -94h-72zM497 853q15 15 33 20q29 11 59 11q64 0 83 -50q6 -16 6 -29q0 -53 -58 -74q-17 -6 -38 -6h-19l-7 -50l-16 -18l-21 73l25 26q13 0 41 5q36 12 36 42q0 7 -2 13q-10 27 -42 27
q-37 0 -59 -24l-24 -26q-2 21 -2 35q0 21 5 25z" />
    <glyph glyph-name="glyph317" unicode="&#x1ec4;" horiz-adv-x="864" 
d="M96 0v724h711v-80h-613v-231h589v-80h-589v-253h617v-80h-715zM268 759l146 147h74l146 -147h-82l-102 105l-102 -105h-80zM628 1063h45q-25 -41 -75 -76q-55 -39 -97 -38q-27 1 -70 29.5t-67 28.5q-43 1 -86 -57h-45q27 42 75 76q54 39 97 38q29 -1 73.5 -29.5
t65.5 -28.5q41 -1 84 57z" />
    <glyph glyph-name="glyph318" unicode="&#x1ec5;" 
d="M625 310v34q0 104 -179 104h-126q-97 0 -129 -22q-41 -27 -47 -116h481zM58 201v111q0 125 79 172q57 34 171 34h138q130 0 192 -44q73 -51 73 -177v-57h-567v-32q0 -92 60 -124q43 -22 146 -22h118q75 0 104 11q49 19 53 81h86v-10q0 -94 -88 -129q-57 -23 -169 -23
h-156q-108 0 -162 34q-78 49 -78 175zM218 551l132 132h66l132 -132h-74l-92 94l-92 -94h-72zM542 824h41q-24 -37 -67 -68q-50 -35 -88 -34q-25 1 -63.5 26.5t-59.5 25.5q-39 1 -78 -51h-40q23 37 67 69q49 34 88 33q26 -1 65 -26.5t60 -25.5q36 -1 75 51z" />
    <glyph glyph-name="glyph319" unicode="&#x1ec6;" horiz-adv-x="864" 
d="M96 0v724h711v-80h-613v-231h589v-80h-589v-253h617v-80h-715zM268 760l146 147h74l146 -147h-82l-102 105l-102 -105h-80zM499 -60l18 -46l-18 -44l-49 -18l-51 18l-17 45l17 45l51 18z" />
    <glyph glyph-name="glyph320" unicode="&#x1ec7;" 
d="M625 310v34q0 104 -179 104h-126q-97 0 -129 -22q-41 -27 -47 -116h481zM58 201v111q0 125 79 172q57 34 171 34h138q130 0 192 -44q73 -51 73 -177v-57h-567v-32q0 -92 60 -124q43 -22 146 -22h118q75 0 104 11q49 19 53 81h86v-10q0 -94 -88 -129q-57 -23 -169 -23
h-156q-108 0 -162 34q-78 49 -78 175zM219 551l131 132h67l131 -132h-74l-92 94l-91 -94h-72zM426 -65l16 -41l-16 -39l-44 -17l-46 17l-15 40l15 40l46 17z" />
    <glyph glyph-name="glyph321" unicode="&#x1ec8;" horiz-adv-x="296" 
d="M99 0v724h98v-724h-98zM105 986q30 33 96 33q68 0 88 -53q6 -16 6 -30q0 -56 -61 -78q-17 -6 -40 -6h-20l-7 -53l-17 -19l-22 77l26 27q19 0 43 6q39 10 39 43q0 20 -14 31.5t-34 11.5q-38 0 -62 -26l-25 -27q-2 21 -2 35q0 24 6 28z" />
    <glyph glyph-name="glyph322" unicode="&#x1ec9;" horiz-adv-x="272" 
d="M93 0v510h86v-510h-86zM93 776q15 15 33 20q29 11 59 11q64 0 83 -50q6 -16 6 -29q0 -53 -58 -74q-17 -6 -38 -6h-19l-7 -50l-16 -18l-21 73l25 26q13 0 41 5q36 12 36 42q0 7 -2 13q-10 27 -42 27q-37 0 -59 -24l-24 -26q-2 21 -2 35q0 21 5 25z" />
    <glyph glyph-name="glyph323" unicode="&#x1eca;" horiz-adv-x="296" 
d="M99 0v724h98v-724h-98zM199 -60l18 -46l-18 -44l-49 -18l-51 18l-17 45l17 45l51 18z" />
    <glyph glyph-name="glyph324" unicode="&#x1ecb;" horiz-adv-x="272" 
d="M93 0v510h86v-510h-86zM180 687l16 -41l-16 -40l-44 -16l-46 16l-15 41l15 40l46 17zM179 -59l16 -41l-16 -39l-44 -17l-46 17l-15 40l15 40l46 17z" />
    <glyph glyph-name="glyph325" unicode="&#x1ecc;" horiz-adv-x="1087" 
d="M912 226v272q0 154 -170 154h-397q-170 0 -170 -154v-272q0 -154 170 -154h397q170 0 170 154zM77 263v198q0 142 58.5 206.5t199.5 64.5h417q142 0 201 -66q57 -62 57 -205v-198q0 -143 -57 -205q-59 -66 -201 -66h-417q-141 0 -201 66q-57 63 -57 205zM585 -70l18 -46
l-18 -44l-49 -18l-51 18l-17 45l17 45l51 18z" />
    <glyph glyph-name="glyph326" unicode="&#x1ecd;" horiz-adv-x="815" 
d="M64 199v112q0 121 86 170q65 37 196 37h123q131 0 196 -37q86 -49 86 -170v-112q0 -120 -86 -169q-66 -38 -196 -38h-123q-130 0 -196 38q-86 49 -86 169zM665 204v102q0 83 -46 115q-38 27 -124 27h-175q-85 0 -124 -27q-46 -33 -46 -115v-102q0 -82 46 -115
q39 -27 124 -27h175q86 0 124 27q46 32 46 115zM449 -65l16 -41l-16 -39l-44 -17l-46 17l-15 40l15 40l46 17z" />
    <glyph glyph-name="glyph327" unicode="&#x1ece;" horiz-adv-x="1087" 
d="M912 226v272q0 154 -170 154h-397q-170 0 -170 -154v-272q0 -154 170 -154h397q170 0 170 154zM77 263v198q0 142 58.5 206.5t199.5 64.5h417q142 0 201 -66q57 -62 57 -205v-198q0 -143 -57 -205q-59 -66 -201 -66h-417q-141 0 -201 66q-57 63 -57 205zM490 1006
q30 33 96 33q68 0 88 -53q6 -16 6 -30q0 -56 -61 -78q-17 -6 -40 -6h-20l-7 -53l-17 -19l-22 77l26 27q19 0 43 6q39 10 39 43q0 20 -14 31.5t-34 11.5q-38 0 -62 -26l-25 -27q-2 21 -2 35q0 24 6 28z" />
    <glyph glyph-name="glyph328" unicode="&#x1ecf;" horiz-adv-x="815" 
d="M64 199v112q0 121 86 170q65 37 196 37h123q131 0 196 -37q86 -49 86 -170v-112q0 -120 -86 -169q-66 -38 -196 -38h-123q-130 0 -196 38q-86 49 -86 169zM665 204v102q0 83 -46 115q-38 27 -124 27h-175q-85 0 -124 -27q-46 -33 -46 -115v-102q0 -82 46 -115
q39 -27 124 -27h175q86 0 124 27q46 32 46 115zM362 796q15 15 33 20q29 11 59 11q64 0 83 -50q6 -16 6 -29q0 -53 -58 -74q-17 -6 -38 -6h-19l-7 -50l-16 -18l-21 73l25 26q13 0 41 5q36 12 36 42q0 7 -2 13q-10 27 -42 27q-37 0 -59 -24l-24 -26q-2 21 -2 35q0 21 5 25z
" />
    <glyph glyph-name="glyph329" unicode="&#x1ed0;" horiz-adv-x="1087" 
d="M912 226v272q0 154 -170 154h-397q-170 0 -170 -154v-272q0 -154 170 -154h397q170 0 170 154zM77 263v198q0 142 58.5 206.5t199.5 64.5h417q142 0 201 -66q57 -62 57 -205v-198q0 -143 -57 -205q-59 -66 -201 -66h-417q-141 0 -201 66q-57 63 -57 205zM353 760l146 147
h74l146 -147h-82l-102 105l-102 -105h-80zM695 866l108 167h112l-190 -167l-15 -1z" />
    <glyph glyph-name="glyph330" unicode="&#x1ed1;" horiz-adv-x="815" 
d="M64 199v112q0 121 86 170q65 37 196 37h123q131 0 196 -37q86 -49 86 -170v-112q0 -120 -86 -169q-66 -38 -196 -38h-123q-130 0 -196 38q-86 49 -86 169zM665 204v102q0 83 -46 115q-38 27 -124 27h-175q-85 0 -124 -27q-46 -33 -46 -115v-102q0 -82 46 -115
q39 -27 124 -27h175q86 0 124 27q46 32 46 115zM241 552l131 132h67l131 -132h-73l-92 94l-92 -94h-72zM549 647l97 150h101l-171 -150l-14 -1z" />
    <glyph glyph-name="glyph331" unicode="&#x1ed2;" horiz-adv-x="1087" 
d="M912 226v272q0 154 -170 154h-397q-170 0 -170 -154v-272q0 -154 170 -154h397q170 0 170 154zM77 263v198q0 142 58.5 206.5t199.5 64.5h417q142 0 201 -66q57 -62 57 -205v-198q0 -143 -57 -205q-59 -66 -201 -66h-417q-141 0 -201 66q-57 63 -57 205zM354 759l146 147
h74l146 -147h-82l-102 105l-102 -105h-80zM380 865l-15 -1l-15 1l-190 167h112z" />
    <glyph glyph-name="glyph332" unicode="&#x1ed3;" horiz-adv-x="815" 
d="M64 199v112q0 121 86 170q65 37 196 37h123q131 0 196 -37q86 -49 86 -170v-112q0 -120 -86 -169q-66 -38 -196 -38h-123q-130 0 -196 38q-86 49 -86 169zM665 204v102q0 83 -46 115q-38 27 -124 27h-175q-85 0 -124 -27q-46 -33 -46 -115v-102q0 -82 46 -115
q39 -27 124 -27h175q86 0 124 27q46 32 46 115zM242 551l131 132h67l131 -132h-74l-92 94l-91 -94h-72zM265 646l-13 -1l-14 1l-171 150h101z" />
    <glyph glyph-name="glyph333" unicode="&#x1ed4;" horiz-adv-x="1087" 
d="M912 226v272q0 154 -170 154h-397q-170 0 -170 -154v-272q0 -154 170 -154h397q170 0 170 154zM77 263v198q0 142 58.5 206.5t199.5 64.5h417q142 0 201 -66q57 -62 57 -205v-198q0 -143 -57 -205q-59 -66 -201 -66h-417q-141 0 -201 66q-57 63 -57 205zM353 759l146 147
h74l146 -147h-82l-102 105l-102 -105h-80zM648 1070q30 33 96 33q68 0 88 -53q6 -16 6 -30q0 -56 -61 -78q-17 -6 -40 -6h-20l-7 -53l-17 -19l-22 77l26 27q19 0 43 6q39 10 39 43q0 20 -14 31.5t-34 11.5q-38 0 -62 -26l-25 -27q-2 21 -2 35q0 24 6 28z" />
    <glyph glyph-name="glyph334" unicode="&#x1ed5;" horiz-adv-x="815" 
d="M64 199v112q0 121 86 170q65 37 196 37h123q131 0 196 -37q86 -49 86 -170v-112q0 -120 -86 -169q-66 -38 -196 -38h-123q-130 0 -196 38q-86 49 -86 169zM665 204v102q0 83 -46 115q-38 27 -124 27h-175q-85 0 -124 -27q-46 -33 -46 -115v-102q0 -82 46 -115
q39 -27 124 -27h175q86 0 124 27q46 32 46 115zM240 552l132 132h66l132 -132h-74l-92 94l-92 -94h-72zM520 853q15 15 33 20q29 11 59 11q64 0 83 -50q6 -16 6 -29q0 -53 -58 -74q-17 -6 -38 -6h-19l-7 -50l-16 -18l-21 73l25 26q13 0 41 5q36 12 36 42q0 7 -2 13
q-10 27 -42 27q-37 0 -59 -24l-24 -26q-2 21 -2 35q0 21 5 25z" />
    <glyph glyph-name="glyph335" unicode="&#x1ed6;" horiz-adv-x="1087" 
d="M912 226v272q0 154 -170 154h-397q-170 0 -170 -154v-272q0 -154 170 -154h397q170 0 170 154zM77 263v198q0 142 58.5 206.5t199.5 64.5h417q142 0 201 -66q57 -62 57 -205v-198q0 -143 -57 -205q-59 -66 -201 -66h-417q-141 0 -201 66q-57 63 -57 205zM353 759l146 147
h74l146 -147h-82l-102 105l-102 -105h-80zM713 1063h45q-25 -41 -75 -76q-55 -39 -97 -38q-27 1 -70 29.5t-67 28.5q-43 1 -86 -57h-45q27 42 75 76q54 39 97 38q29 -1 73.5 -29.5t65.5 -28.5q41 -1 84 57z" />
    <glyph glyph-name="glyph336" unicode="&#x1ed7;" horiz-adv-x="815" 
d="M64 199v112q0 121 86 170q65 37 196 37h123q131 0 196 -37q86 -49 86 -170v-112q0 -120 -86 -169q-66 -38 -196 -38h-123q-130 0 -196 38q-86 49 -86 169zM665 204v102q0 83 -46 115q-38 27 -124 27h-175q-85 0 -124 -27q-46 -33 -46 -115v-102q0 -82 46 -115
q39 -27 124 -27h175q86 0 124 27q46 32 46 115zM241 551l132 132h66l132 -132h-74l-92 94l-92 -94h-72zM565 824h41q-24 -37 -67 -68q-50 -35 -88 -34q-25 1 -63.5 26.5t-59.5 25.5q-39 1 -78 -51h-40q23 37 67 69q49 34 88 33q26 -1 65 -26.5t60 -25.5q36 -1 75 51z" />
    <glyph glyph-name="glyph337" unicode="&#x1ed8;" horiz-adv-x="1087" 
d="M912 226v272q0 154 -170 154h-397q-170 0 -170 -154v-272q0 -154 170 -154h397q170 0 170 154zM77 263v198q0 142 58.5 206.5t199.5 64.5h417q142 0 201 -66q57 -62 57 -205v-198q0 -143 -57 -205q-59 -66 -201 -66h-417q-141 0 -201 66q-57 63 -57 205zM353 760l146 147
h74l146 -147h-82l-102 105l-102 -105h-80zM585 -70l18 -46l-18 -44l-49 -18l-51 18l-17 45l17 45l51 18z" />
    <glyph glyph-name="glyph338" unicode="&#x1ed9;" horiz-adv-x="815" 
d="M64 199v112q0 121 86 170q65 37 196 37h123q131 0 196 -37q86 -49 86 -170v-112q0 -120 -86 -169q-66 -38 -196 -38h-123q-130 0 -196 38q-86 49 -86 169zM665 204v102q0 83 -46 115q-38 27 -124 27h-175q-85 0 -124 -27q-46 -33 -46 -115v-102q0 -82 46 -115
q39 -27 124 -27h175q86 0 124 27q46 32 46 115zM242 551l131 132h67l131 -132h-74l-92 94l-91 -94h-72zM449 -65l16 -41l-16 -39l-44 -17l-46 17l-15 40l15 40l46 17z" />
    <glyph glyph-name="glyph339" unicode="&#x1eda;" horiz-adv-x="1087" 
d="M912 226v272q0 154 -170 154h-397q-170 0 -170 -154v-272q0 -154 170 -154h397q170 0 170 154zM949 671q61 -62 61 -210v-198q0 -143 -57 -205q-59 -66 -201 -66h-417q-141 0 -201 66q-57 63 -57 205v198q0 142 58.5 206.5t199.5 64.5h417q108 0 166 -37q80 42 95 82
q45 13 61 13q19 0 19 -13q0 -33 -57 -70q-44 -29 -87 -36zM520 801l108 167h112l-190 -167l-15 -1z" />
    <glyph glyph-name="glyph340" unicode="&#x1edb;" horiz-adv-x="815" 
d="M665 204v102q0 83 -46 115q-38 27 -124 27h-175q-85 0 -124 -27q-46 -33 -46 -115v-102q0 -82 46 -115q39 -27 124 -27h175q86 0 124 27q46 32 46 115zM633 496l42 20q34 24 43 48q41 12 54 12q24 0 16 -21q-10 -27 -46 -52q-30 -21 -63 -30q72 -51 72 -162v-112
q0 -120 -86 -169q-66 -38 -196 -38h-123q-130 0 -196 38q-86 49 -86 169v112q0 121 86 170q65 37 196 37h123q102 0 164 -22zM392 601l97 150h101l-171 -150l-14 -1z" />
    <glyph glyph-name="glyph341" unicode="&#x1edc;" horiz-adv-x="1087" 
d="M912 226v272q0 154 -170 154h-397q-170 0 -170 -154v-272q0 -154 170 -154h397q170 0 170 154zM949 671q61 -62 61 -210v-198q0 -143 -57 -205q-59 -66 -201 -66h-417q-141 0 -201 66q-57 63 -57 205v198q0 142 58.5 206.5t199.5 64.5h417q108 0 166 -37q80 42 95 82
q45 13 61 13q19 0 19 -13q0 -33 -57 -70q-44 -29 -87 -36zM550 801l-15 -1l-15 1l-190 167h112z" />
    <glyph glyph-name="glyph342" unicode="&#x1edd;" horiz-adv-x="815" 
d="M665 204v102q0 83 -46 115q-38 27 -124 27h-175q-85 0 -124 -27q-46 -33 -46 -115v-102q0 -82 46 -115q39 -27 124 -27h175q86 0 124 27q46 32 46 115zM633 496l42 20q34 24 43 48q41 12 54 12q24 0 16 -21q-10 -27 -46 -52q-30 -21 -63 -30q72 -51 72 -162v-112
q0 -120 -86 -169q-66 -38 -196 -38h-123q-130 0 -196 38q-86 49 -86 169v112q0 121 86 170q65 37 196 37h123q102 0 164 -22zM418 601l-13 -1l-14 1l-171 150h101z" />
    <glyph glyph-name="glyph343" unicode="&#x1ede;" horiz-adv-x="1087" 
d="M912 226v272q0 154 -170 154h-397q-170 0 -170 -154v-272q0 -154 170 -154h397q170 0 170 154zM949 671q61 -62 61 -210v-198q0 -143 -57 -205q-59 -66 -201 -66h-417q-141 0 -201 66q-57 63 -57 205v198q0 142 58.5 206.5t199.5 64.5h417q108 0 166 -37q80 42 95 82
q45 13 61 13q19 0 19 -13q0 -33 -57 -70q-44 -29 -87 -36zM490 1006q30 33 96 33q68 0 88 -53q6 -16 6 -30q0 -56 -61 -78q-17 -6 -40 -6h-20l-7 -53l-17 -19l-22 77l26 27q19 0 43 6q39 10 39 43q0 20 -14 31.5t-34 11.5q-38 0 -62 -26l-25 -27q-2 21 -2 35q0 24 6 28z" />
    <glyph glyph-name="glyph344" unicode="&#x1edf;" horiz-adv-x="815" 
d="M665 204v102q0 83 -46 115q-38 27 -124 27h-175q-85 0 -124 -27q-46 -33 -46 -115v-102q0 -82 46 -115q39 -27 124 -27h175q86 0 124 27q46 32 46 115zM633 496l42 20q34 24 43 48q41 12 54 12q24 0 16 -21q-10 -27 -46 -52q-30 -21 -63 -30q72 -51 72 -162v-112
q0 -120 -86 -169q-66 -38 -196 -38h-123q-130 0 -196 38q-86 49 -86 169v112q0 121 86 170q65 37 196 37h123q102 0 164 -22zM362 796q15 15 33 20q29 11 59 11q64 0 83 -50q6 -16 6 -29q0 -53 -58 -74q-17 -6 -38 -6h-19l-7 -50l-16 -18l-21 73l25 26q13 0 41 5
q36 12 36 42q0 7 -2 13q-10 27 -42 27q-37 0 -59 -24l-24 -26q-2 21 -2 35q0 21 5 25z" />
    <glyph glyph-name="glyph345" unicode="&#x1ee0;" horiz-adv-x="1087" 
d="M912 226v272q0 154 -170 154h-397q-170 0 -170 -154v-272q0 -154 170 -154h397q170 0 170 154zM949 671q61 -62 61 -210v-198q0 -143 -57 -205q-59 -66 -201 -66h-417q-141 0 -201 66q-57 63 -57 205v198q0 142 58.5 206.5t199.5 64.5h417q108 0 166 -37q80 42 95 82
q45 13 61 13q19 0 19 -13q0 -33 -57 -70q-44 -29 -87 -36zM713 913h45q-25 -41 -75 -76q-55 -39 -97 -38q-27 1 -70 29.5t-67 28.5q-43 1 -86 -57h-45q27 42 75 76q54 39 97 38q29 -1 73.5 -29.5t65.5 -28.5q41 -1 84 57z" />
    <glyph glyph-name="glyph346" unicode="&#x1ee1;" horiz-adv-x="815" 
d="M665 204v102q0 83 -46 115q-38 27 -124 27h-175q-85 0 -124 -27q-46 -33 -46 -115v-102q0 -82 46 -115q39 -27 124 -27h175q86 0 124 27q46 32 46 115zM633 496l42 20q34 24 43 48q41 12 54 12q24 0 16 -21q-10 -27 -46 -52q-30 -21 -63 -30q72 -51 72 -162v-112
q0 -120 -86 -169q-66 -38 -196 -38h-123q-130 0 -196 38q-86 49 -86 169v112q0 121 86 170q65 37 196 37h123q102 0 164 -22zM565 701h41q-24 -37 -67 -68q-50 -35 -88 -34q-25 1 -63.5 26.5t-59.5 25.5q-39 1 -78 -51h-40q23 37 67 69q49 34 88 33q26 -1 65 -26.5t60 -25.5
q36 -1 75 51z" />
    <glyph glyph-name="glyph347" unicode="&#x1ee2;" horiz-adv-x="1087" 
d="M912 226v272q0 154 -170 154h-397q-170 0 -170 -154v-272q0 -154 170 -154h397q170 0 170 154zM949 671q61 -62 61 -210v-198q0 -143 -57 -205q-59 -66 -201 -66h-417q-141 0 -201 66q-57 63 -57 205v198q0 142 58.5 206.5t199.5 64.5h417q108 0 166 -37q80 42 95 82
q45 13 61 13q19 0 19 -13q0 -33 -57 -70q-44 -29 -87 -36zM585 -70l18 -46l-18 -44l-49 -18l-51 18l-17 45l17 45l51 18z" />
    <glyph glyph-name="glyph348" unicode="&#x1ee3;" horiz-adv-x="815" 
d="M665 204v102q0 83 -46 115q-38 27 -124 27h-175q-85 0 -124 -27q-46 -33 -46 -115v-102q0 -82 46 -115q39 -27 124 -27h175q86 0 124 27q46 32 46 115zM633 496l42 20q34 24 43 48q41 12 54 12q24 0 16 -21q-10 -27 -46 -52q-30 -21 -63 -30q72 -51 72 -162v-112
q0 -120 -86 -169q-66 -38 -196 -38h-123q-130 0 -196 38q-86 49 -86 169v112q0 121 86 170q65 37 196 37h123q102 0 164 -22zM449 -65l16 -41l-16 -39l-44 -17l-46 17l-15 40l15 40l46 17z" />
    <glyph glyph-name="glyph349" unicode="&#x1ee4;" horiz-adv-x="1042" 
d="M96 182v542h98v-541q0 -69 46 -93q33 -18 111 -18h340q78 0 111 18q46 24 46 93v541h98v-542q0 -117 -74 -159q-56 -31 -184 -31h-334q-128 0 -183 31q-75 42 -75 159zM570 -70l18 -46l-18 -44l-49 -18l-51 18l-17 45l17 45l51 18z" />
    <glyph glyph-name="glyph350" unicode="&#x1ee5;" horiz-adv-x="791" 
d="M630 0v88h-2q-25 -60 -85 -82q-41 -14 -121 -14h-129q-212 0 -212 173v345h86v-324q0 -79 57 -106q38 -18 131 -18h22q126 0 172 20q75 32 75 138v290h86v-510h-80zM438 -65l16 -41l-16 -39l-44 -17l-46 17l-15 40l15 40l46 17z" />
    <glyph glyph-name="glyph351" unicode="&#x1ee6;" horiz-adv-x="1042" 
d="M96 182v542h98v-541q0 -69 46 -93q33 -18 111 -18h340q78 0 111 18q46 24 46 93v541h98v-542q0 -117 -74 -159q-56 -31 -184 -31h-334q-128 0 -183 31q-75 42 -75 159zM475 956q30 33 96 33q68 0 88 -53q6 -16 6 -30q0 -56 -61 -78q-17 -6 -40 -6h-20l-7 -53l-17 -19
l-22 77l26 27q19 0 43 6q39 10 39 43q0 20 -14 31.5t-34 11.5q-38 0 -62 -26l-25 -27q-2 21 -2 35q0 24 6 28z" />
    <glyph glyph-name="glyph352" unicode="&#x1ee7;" horiz-adv-x="791" 
d="M630 0v88h-2q-25 -60 -85 -82q-41 -14 -121 -14h-129q-212 0 -212 173v345h86v-324q0 -79 57 -106q38 -18 131 -18h22q126 0 172 20q75 32 75 138v290h86v-510h-80zM351 726q15 15 33 20q29 11 59 11q64 0 83 -50q6 -16 6 -29q0 -53 -58 -74q-17 -6 -38 -6h-19l-7 -50
l-16 -18l-21 73l25 26q13 0 41 5q36 12 36 42q0 7 -2 13q-10 27 -42 27q-37 0 -59 -24l-24 -26q-2 21 -2 35q0 21 5 25z" />
    <glyph glyph-name="glyph353" unicode="&#x1ee8;" horiz-adv-x="1042" 
d="M946 675v-493q0 -117 -74 -159q-56 -31 -184 -31h-334q-128 0 -183 31q-75 42 -75 159v542h98v-541q0 -69 46 -93q33 -18 111 -18h340q78 0 111 18q46 24 46 93v541h95q39 27 48 53q45 13 61 13q19 0 19 -13q0 -29 -48 -64q-36 -26 -77 -38zM505 761l108 167h112
l-190 -167l-15 -1z" />
    <glyph glyph-name="glyph354" unicode="&#x1ee9;" horiz-adv-x="791" 
d="M710 472v-472h-80v88h-2q-25 -60 -85 -82q-41 -14 -121 -14h-129q-212 0 -212 173v345h86v-324q0 -79 57 -106q38 -18 131 -18h22q126 0 172 20q75 32 75 138v290h71l12 6q34 24 43 48q41 12 54 12q24 0 16 -21q-10 -28 -46 -52q-30 -21 -64 -31zM380 553l97 150h101
l-171 -150l-14 -1z" />
    <glyph glyph-name="glyph355" unicode="&#x1eea;" horiz-adv-x="1042" 
d="M946 675v-493q0 -117 -74 -159q-56 -31 -184 -31h-334q-128 0 -183 31q-75 42 -75 159v542h98v-541q0 -69 46 -93q33 -18 111 -18h340q78 0 111 18q46 24 46 93v541h95q39 27 48 53q45 13 61 13q19 0 19 -13q0 -29 -48 -64q-36 -26 -77 -38zM535 761l-15 -1l-15 1
l-190 167h112z" />
    <glyph glyph-name="glyph356" unicode="&#x1eeb;" horiz-adv-x="791" 
d="M710 472v-472h-80v88h-2q-25 -60 -85 -82q-41 -14 -121 -14h-129q-212 0 -212 173v345h86v-324q0 -79 57 -106q38 -18 131 -18h22q126 0 172 20q75 32 75 138v290h71l12 6q34 24 43 48q41 12 54 12q24 0 16 -21q-10 -28 -46 -52q-30 -21 -64 -31zM407 553l-13 -1l-14 1
l-171 150h101z" />
    <glyph glyph-name="glyph357" unicode="&#x1eec;" horiz-adv-x="1042" 
d="M946 675v-493q0 -117 -74 -159q-56 -31 -184 -31h-334q-128 0 -183 31q-75 42 -75 159v542h98v-541q0 -69 46 -93q33 -18 111 -18h340q78 0 111 18q46 24 46 93v541h95q39 27 48 53q45 13 61 13q19 0 19 -13q0 -29 -48 -64q-36 -26 -77 -38zM475 956q30 33 96 33
q68 0 88 -53q6 -16 6 -30q0 -56 -61 -78q-17 -6 -40 -6h-20l-7 -53l-17 -19l-22 77l26 27q19 0 43 6q39 10 39 43q0 20 -14 31.5t-34 11.5q-38 0 -62 -26l-25 -27q-2 21 -2 35q0 24 6 28z" />
    <glyph glyph-name="glyph358" unicode="&#x1eed;" horiz-adv-x="791" 
d="M710 472v-472h-80v88h-2q-25 -60 -85 -82q-41 -14 -121 -14h-129q-212 0 -212 173v345h86v-324q0 -79 57 -106q38 -18 131 -18h22q126 0 172 20q75 32 75 138v290h71l12 6q34 24 43 48q41 12 54 12q24 0 16 -21q-10 -28 -46 -52q-30 -21 -64 -31zM351 746q15 15 33 20
q29 11 59 11q64 0 83 -50q6 -16 6 -29q0 -53 -58 -74q-17 -6 -38 -6h-19l-7 -50l-16 -18l-21 73l25 26q13 0 41 5q36 12 36 42q0 7 -2 13q-10 27 -42 27q-37 0 -59 -24l-24 -26q-2 21 -2 35q0 21 5 25z" />
    <glyph glyph-name="glyph359" unicode="&#x1eee;" horiz-adv-x="1042" 
d="M946 675v-493q0 -117 -74 -159q-56 -31 -184 -31h-334q-128 0 -183 31q-75 42 -75 159v542h98v-541q0 -69 46 -93q33 -18 111 -18h340q78 0 111 18q46 24 46 93v541h95q39 27 48 53q45 13 61 13q19 0 19 -13q0 -29 -48 -64q-36 -26 -77 -38zM698 873h45q-25 -41 -75 -76
q-55 -39 -97 -38q-27 1 -70 29.5t-67 28.5q-43 1 -86 -57h-45q27 42 75 76q54 39 97 38q29 -1 73.5 -29.5t65.5 -28.5q41 -1 84 57z" />
    <glyph glyph-name="glyph360" unicode="&#x1eef;" horiz-adv-x="791" 
d="M710 472v-472h-80v88h-2q-25 -60 -85 -82q-41 -14 -121 -14h-129q-212 0 -212 173v345h86v-324q0 -79 57 -106q38 -18 131 -18h22q126 0 172 20q75 32 75 138v290h71l12 6q34 24 43 48q41 12 54 12q24 0 16 -21q-10 -28 -46 -52q-30 -21 -64 -31zM554 657h41
q-24 -37 -67 -68q-50 -35 -88 -34q-25 1 -63.5 26.5t-59.5 25.5q-39 1 -78 -51h-40q23 37 67 69q49 34 88 33q26 -1 65 -26.5t60 -25.5q36 -1 75 51z" />
    <glyph glyph-name="glyph361" unicode="&#x1ef0;" horiz-adv-x="1042" 
d="M946 675v-493q0 -117 -74 -159q-56 -31 -184 -31h-334q-128 0 -183 31q-75 42 -75 159v542h98v-541q0 -69 46 -93q33 -18 111 -18h340q78 0 111 18q46 24 46 93v541h95q39 27 48 53q45 13 61 13q19 0 19 -13q0 -29 -48 -64q-36 -26 -77 -38zM570 -70l18 -46l-18 -44
l-49 -18l-51 18l-17 45l17 45l51 18z" />
    <glyph glyph-name="glyph362" unicode="&#x1ef1;" horiz-adv-x="791" 
d="M710 472v-472h-80v88h-2q-25 -60 -85 -82q-41 -14 -121 -14h-129q-212 0 -212 173v345h86v-324q0 -79 57 -106q38 -18 131 -18h22q126 0 172 20q75 32 75 138v290h71l12 6q34 24 43 48q41 12 54 12q24 0 16 -21q-10 -28 -46 -52q-30 -21 -64 -31zM438 -65l16 -41l-16 -39
l-44 -17l-46 17l-15 40l15 40l46 17z" />
    <glyph glyph-name="glyph363" unicode="&#x1ef2;" horiz-adv-x="964" 
d="M433 0v306l-415 418h132l332 -336l332 336h132l-415 -418v-306h-98zM492 751l-15 -1l-15 1l-190 167h112z" />
    <glyph glyph-name="glyph364" unicode="&#x1ef3;" horiz-adv-x="667" 
d="M109 -190v70q103 0 135 17q37 19 70 95h-21l-289 518h97l247 -451l222 451h93l-288 -573q-44 -87 -107 -111q-41 -15 -159 -16zM345 553l-13 -1l-14 1l-171 150h101z" />
    <glyph glyph-name="glyph365" unicode="&#x1ef4;" horiz-adv-x="964" 
d="M433 0v306l-415 418h132l332 -336l332 336h132l-415 -418v-306h-98zM532 -60l18 -46l-18 -44l-49 -18l-51 18l-17 45l17 45l51 18z" />
    <glyph glyph-name="glyph366" unicode="&#x1ef5;" horiz-adv-x="667" 
d="M109 -190v70q103 0 135 17q37 19 70 95h-21l-289 518h97l247 -451l222 451h93l-288 -573q-44 -87 -107 -111q-41 -15 -159 -16zM516 -59l16 -41l-16 -39l-44 -17l-46 17l-15 40l15 40l46 17z" />
    <glyph glyph-name="glyph367" unicode="&#x1ef6;" horiz-adv-x="964" 
d="M433 0v306l-415 418h132l332 -336l332 336h132l-415 -418v-306h-98zM432 946q30 33 96 33q68 0 88 -53q6 -16 6 -30q0 -56 -61 -78q-17 -6 -40 -6h-20l-7 -53l-17 -19l-22 77l26 27q19 0 43 6q39 10 39 43q0 20 -14 31.5t-34 11.5q-38 0 -62 -26l-25 -27q-2 21 -2 35
q0 24 6 28z" />
    <glyph glyph-name="glyph368" unicode="&#x1ef7;" horiz-adv-x="667" 
d="M109 -190v70q103 0 135 17q37 19 70 95h-21l-289 518h97l247 -451l222 451h93l-288 -573q-44 -87 -107 -111q-41 -15 -159 -16zM289 736q15 15 33 20q29 11 59 11q64 0 83 -50q6 -16 6 -29q0 -53 -58 -74q-17 -6 -38 -6h-19l-7 -50l-16 -18l-21 73l25 26q13 0 41 5
q36 12 36 42q0 7 -2 13q-10 27 -42 27q-37 0 -59 -24l-24 -26q-2 21 -2 35q0 21 5 25z" />
    <glyph glyph-name="glyph369" unicode="&#x1ef8;" horiz-adv-x="964" 
d="M433 0v306l-415 418h132l332 -336l332 336h132l-415 -418v-306h-98zM658 863h45q-25 -41 -75 -76q-55 -39 -97 -38q-27 1 -70 29.5t-67 28.5q-43 1 -86 -57h-45q27 42 75 76q54 39 97 38q29 -1 73.5 -29.5t65.5 -28.5q41 -1 84 57z" />
    <glyph glyph-name="glyph370" unicode="&#x1ef9;" horiz-adv-x="667" 
d="M109 -190v70q103 0 135 17q37 19 70 95h-21l-289 518h97l247 -451l222 451h93l-288 -573q-44 -87 -107 -111q-41 -15 -159 -16zM498 657h41q-24 -37 -67 -68q-50 -35 -88 -34q-25 1 -63.5 26.5t-59.5 25.5q-39 1 -78 -51h-40q23 37 67 69q49 34 88 33q26 -1 65 -26.5
t60 -25.5q36 -1 75 51z" />
    <glyph glyph-name="endash" unicode="&#x2013;" horiz-adv-x="500" 
d="M0 225v80h500v-80h-500z" />
    <glyph glyph-name="emdash" unicode="&#x2014;" horiz-adv-x="1000" 
d="M0 225v80h1000v-80h-1000z" />
    <glyph glyph-name="quoteleft" unicode="&#x2018;" horiz-adv-x="272" 
d="M80 482v124q0 60 20 86q25 32 92 32v-58q-27 0 -35.5 -12t-8.5 -42h38v-130h-106z" />
    <glyph glyph-name="quoteright" unicode="&#x2019;" horiz-adv-x="272" 
d="M192 724v-124q0 -60 -20 -86q-25 -32 -92 -32v58q27 0 37 13q7 11 7 41h-38v130h106z" />
    <glyph glyph-name="quotesinglbase" unicode="&#x201a;" horiz-adv-x="272" 
d="M192 130v-124q0 -60 -20 -86q-25 -32 -92 -32v58q27 0 37 13q7 11 7 41h-38v130h106z" />
    <glyph glyph-name="quotedblleft" unicode="&#x201c;" horiz-adv-x="494" 
d="M89 482v124q0 60 20 86q25 32 92 32v-58q-27 0 -35.5 -12t-8.5 -42h38v-130h-106zM293 482v124q0 60 20 86q25 32 92 32v-58q-27 0 -35.5 -12t-8.5 -42h38v-130h-106z" />
    <glyph glyph-name="quotedblright" unicode="&#x201d;" horiz-adv-x="494" 
d="M405 724v-124q0 -60 -20 -86q-25 -32 -92 -32v58q27 0 37 13q7 11 7 41h-38v130h106zM201 724v-124q0 -60 -20 -86q-25 -32 -92 -32v58q27 0 37 13q7 11 7 41h-38v130h106z" />
    <glyph glyph-name="quotedblbase" unicode="&#x201e;" horiz-adv-x="494" 
d="M405 130v-124q0 -60 -20 -86q-25 -32 -92 -32v58q27 0 37 13q7 11 7 41h-38v130h106zM201 130v-124q0 -60 -20 -86q-25 -32 -92 -32v58q27 0 37 13q7 11 7 41h-38v130h106z" />
    <glyph glyph-name="dagger" unicode="&#x2020;" horiz-adv-x="668" 
d="M294 0v466h-218v70h218v188h80v-188h218v-70h-218v-466h-80z" />
    <glyph glyph-name="daggerdbl" unicode="&#x2021;" horiz-adv-x="668" 
d="M294 233v258h-206v70h206v163h80v-163h206v-70h-206v-258h206v-70h-206v-163h-80v163h-206v70h206z" />
    <glyph glyph-name="bullet" unicode="&#x2022;" horiz-adv-x="500" 
d="M69 362q0 75 53 128t128 53t128 -53t53 -128t-53 -128t-128 -53t-128 53t-53 128z" />
    <glyph glyph-name="ellipsis" unicode="&#x2026;" horiz-adv-x="1000" 
d="M111 0v124h112v-124h-112zM444 0v124h112v-124h-112zM777 0v124h112v-124h-112z" />
    <glyph glyph-name="perthousand" unicode="&#x2030;" horiz-adv-x="1333" 
d="M315 497v92q0 56 -19 67.5t-101 11.5t-101 -11.5t-19 -67.5v-92q0 -56 19 -67.5t101 -11.5t101 11.5t19 67.5zM291 -8l245 740h65l-245 -740h-65zM820 135v92q0 56 -19 67.5t-101 11.5t-101 -11.5t-19 -67.5v-92q0 -56 19 -67.5t101 -11.5t101 11.5t19 67.5zM195 354
q-90 0 -119 8q-40 10 -53 49q-12 36 -12 132t12.5 133.5t52.5 47.5q28 8 119 8q90 0 119 -8q40 -10 52.5 -47.5t12.5 -133.5t-12 -132q-13 -39 -53 -49q-28 -8 -119 -8zM700 -8q-90 0 -119 8q-40 10 -53 49q-12 36 -12 132t12.5 133.5t52.5 47.5q28 8 119 8q90 0 119 -8
q40 -10 52.5 -47.5t12.5 -133.5h1q-1 -96 -13 -132q-13 -39 -53 -49q-28 -8 -119 -8zM1137 -8q-90 0 -119 8q-40 10 -53 49q-12 36 -12 132t12.5 133.5t52.5 47.5q28 8 119 8q90 0 119 -8q40 -10 52.5 -47.5t12.5 -133.5h1q-1 -96 -13 -132q-13 -39 -53 -49q-28 -8 -119 -8z
M1257 135v92q0 56 -19 67.5t-101 11.5t-101 -11.5t-19 -67.5v-92q0 -56 19 -67.5t101 -11.5t101 11.5t19 67.5z" />
    <glyph glyph-name="guilsinglleft" unicode="&#x2039;" horiz-adv-x="296" 
d="M161 111l-109 154l109 154h83l-109 -154l109 -154h-83z" />
    <glyph glyph-name="guilsinglright" unicode="&#x203a;" horiz-adv-x="296" 
d="M52 111l109 154l-109 154h83l109 -154l-109 -154h-83z" />
    <glyph glyph-name="fraction" unicode="&#x2044;" horiz-adv-x="222" 
d="M-221 -8l581 740h83l-581 -740h-83z" />
    <glyph glyph-name="franc" unicode="&#x20a3;" horiz-adv-x="1035" 
d="M96 0v724h690v-80h-592v-231h569v-80h-569v-333h-98zM740 0v510h80v-74h2q40 82 156 82h81q119 0 166.5 -41t47.5 -136v-61h-80v22q0 94 -32 120t-147 26h-53q-65 0 -102 -37q-33 -34 -33 -87v-324h-86z" />
    <glyph glyph-name="u20AB" unicode="&#x20ab;" horiz-adv-x="393" 
d="M197 501q-48 0 -84 -88q-20 -49 -20 -90q0 -51 39 -51q41 0 74 71q28 60 28 107q0 51 -37 51zM200 267q-53 -62 -106 -62q-45 0 -68 28t-23 74q0 80 55 153q59 78 136 78q34 0 61 -24l20 75h-100l10 36h100l2 16q0 31 -48 32l7 33q67 2 128 14l15 3q6 0 6 -9l-3 -12
l-19 -77h65l-10 -36h-65l-69 -280q-5 -20 -5 -27q0 -15 12 -15q6 0 49 42l20 -18q-70 -86 -117 -86q-43 0 -53 62zM9 160h221v-56h-221v56z" />
    <glyph glyph-name="trademark" unicode="&#x2122;" horiz-adv-x="990" 
d="M177 312v342h-126v70h332v-70h-126v-342h-80zM859 312v324h-2l-119 -324h-62l-119 324h-2v-324h-80v412h129l103 -281l103 281h129v-412h-80z" />
    <glyph glyph-name="minus" unicode="&#x2212;" horiz-adv-x="600" 
d="M47 218v70h506v-70h-506z" />
    <glyph glyph-name="SF370000" unicode="&#x255f;" horiz-adv-x="718" 
d="M15 0l430 724h122l430 -724h-111l-90 153h-580l-90 -153h-111zM749 233l-243 411l-243 -411h486z" />
    <glyph glyph-name="SF420000" unicode="&#x2560;" horiz-adv-x="681" 
d="M96 0v724h711v-80h-613v-231h589v-80h-589v-253h617v-80h-715z" />
    <glyph glyph-name="SF190000" unicode="&#x2561;" horiz-adv-x="429" 
d="M99 0v724h98v-724h-98z" />
    <glyph glyph-name="SF200000" unicode="&#x2562;" horiz-adv-x="773" 
d="M912 226v272q0 87 -50 124q-40 30 -120 30h-397q-80 0 -120 -30q-50 -37 -50 -124v-272q0 -87 50 -124q40 -30 120 -30h397q80 0 120 30q50 37 50 124zM77 263v198q0 142 56 204q59 67 202 67h417q143 0 203 -67q55 -62 55 -204v-198q0 -142 -55 -204q-60 -67 -203 -67
h-417q-143 0 -202 67q-56 62 -56 204z" />
    <glyph glyph-name="SF230000" unicode="&#x2563;" horiz-adv-x="811" 
d="M96 182v542h98v-541q0 -58 29 -82q34 -29 128 -29h340q94 0 128 29q29 24 29 82v541h98v-542q0 -108 -58.5 -149t-199.5 -41h-334q-141 0 -198 40q-60 42 -60 150z" />
    <glyph glyph-name="SF470000" unicode="&#x2564;" horiz-adv-x="699" 
d="M433 0v306l-415 418h132l332 -336l332 336h132l-415 -418v-306h-98z" />
    <glyph glyph-name="SF480000" unicode="&#x2565;" horiz-adv-x="541" 
d="M608 0v51h-2q-18 -36 -50 -47q-36 -12 -132 -12h-206q-93 0 -131 41q-33 35 -33 112v34q0 81 60 109q47 21 172 21h138q85 0 122.5 -12.5t59.5 -48.5h2v96q0 65 -45 87q-38 17 -145 17h-126q-76 0 -105 -18q-24 -15 -24 -50v-18h-86v25q0 70 49 100.5t164 30.5h136
q136 0 194 -31q74 -39 74 -145v-342h-86zM608 137v23q0 57 -73 73q-28 6 -121 6h-132q-84 0 -113 -16t-29 -64v-16q0 -45 25 -62q29 -19 113 -19h114q123 0 167 14q49 15 49 61z" />
    <glyph glyph-name="SF410000" unicode="&#x2566;" horiz-adv-x="431" 
d="M625 310v34q0 104 -179 104h-126q-103 0 -136.5 -26t-39.5 -112h481zM58 201v111q0 125 79 172q56 34 171 34h138q129 0 190 -42q75 -52 75 -179v-57h-567v-32q0 -85 47 -116q44 -30 159 -30h118q85 0 117 17q36 19 40 75h86v-10q0 -84 -68 -120q-61 -32 -189 -32h-156
q-108 0 -162 34q-78 49 -78 175z" />
    <glyph glyph-name="SF450000" unicode="&#x2567;" horiz-adv-x="314" 
d="M93 0v510h86v-510h-86zM93 630v94h86v-94h-86z" />
    <glyph glyph-name="SF460000" unicode="&#x2568;" horiz-adv-x="314" 
d="M93 0v510h86v-510h-86z" />
    <glyph glyph-name="SF400000" unicode="&#x2569;" horiz-adv-x="498" 
d="M64 199v112q0 117 80 167q66 40 202 40h123q136 0 202 -40q80 -50 80 -167v-112q0 -117 -80 -166q-66 -41 -202 -41h-123q-136 0 -202 41q-80 49 -80 166zM665 204v102q0 83 -47 116q-39 26 -123 26h-175q-84 0 -122 -26q-48 -33 -48 -116v-102q0 -83 48 -116
q38 -26 122 -26h175q84 0 123 26q47 33 47 116z" />
    <glyph glyph-name="SF540000" unicode="&#x256a;" horiz-adv-x="557" 
d="M630 0v88h-2q-23 -56 -75 -78q-44 -18 -131 -18h-129q-212 0 -212 173v345h86v-324q0 -64 31 -90q41 -34 157 -34h22q148 0 199 34q48 32 48 124v290h86v-510h-80z" />
    <glyph glyph-name="SF530000" unicode="&#x256b;" horiz-adv-x="497" 
d="M109 -190v70q102 0 135 17q37 20 70 95h-21l-289 518h97l247 -451l222 451h93l-288 -573q-40 -80 -87 -103t-179 -24z" />
    <glyph glyph-name="circle" unicode="&#x25cb;" horiz-adv-x="718" 
d="M172 820l151 185h82l151 -185h-80l-113 139l-113 -139h-78zM254 1008l148 185h103l-184 -185h-67z" />
    <glyph glyph-name="H18533" unicode="&#x25cf;" horiz-adv-x="718" 
d="M172 820l151 185h82l151 -185h-80l-113 139l-113 -139h-78zM464 1009l-184 185h103l148 -185h-67z" />
    <glyph glyph-name="invbullet" unicode="&#x25d8;" horiz-adv-x="718" 
d="M172 820l151 185h82l151 -185h-80l-113 139l-113 -139h-78zM614 903q9 29 11 64q1 11 8 13q3 0 8 1q67 11 67 54q0 35 -28 35q-5 0 -14 -1t-14 -1q-21 0 -21 18q0 28 32 28q46 0 76 -25.5t26 -70.5q-6 -59 -87 -81q-25 -7 -31 -34h-33z" />
    <glyph glyph-name="invcircle" unicode="&#x25d9;" horiz-adv-x="718" 
d="M172 820l151 185h82l151 -185h-80l-113 139l-113 -139h-78zM569 1157v0h50q-2 -49 -37 -89.5t-80 -40.5q-36 0 -99 30.5t-92 30.5q-43 0 -58 -66h-50q2 49 37 89.5t80 40.5q37 0 100.5 -30.5t90.5 -30.5q43 0 58 66z" />
    <glyph glyph-name="fi" unicode="&#xf001;" horiz-adv-x="791" 
d="M139 0v440h-111v70h111v45q0 86 49 130q43 39 119 39h161v-70h-154q-89 0 -89 -81v-63h243v-70h-243v-440h-86zM594 0v510h86v-510h-86zM594 630v94h86v-94h-86z" />
    <glyph glyph-name="fl" unicode="&#xf002;" horiz-adv-x="791" 
d="M139 0v440h-111v70h111v45q0 86 49 130q43 39 119 39h161v-70h-154q-89 0 -89 -81v-63h243v-70h-243v-440h-86zM594 0v724h86v-724h-86z" />
    <glyph glyph-name="periodcentered" horiz-adv-x="482" 
d="M241 375q-30 0 -52 -22.5t-22 -51.5q0 -30 22 -52t52 -22t52 22t22 52t-22 52t-52 22z" />
    <glyph glyph-name="glyph231" horiz-adv-x="482" 
 />
    <glyph glyph-name="glyph232" horiz-adv-x="278" 
 />
    <glyph glyph-name="glyph275" horiz-adv-x="249" 
 />
    <glyph glyph-name="glyph276" horiz-adv-x="249" 
 />
    <glyph glyph-name="glyph261" horiz-adv-x="500" 
d="M253 522q9 29 11 64q1 11 8 13q3 0 8 1q67 11 67 54q0 35 -28 35q-5 0 -14 -1t-14 -1q-21 0 -21 18q0 28 32 28q46 0 76 -25.5t26 -70.5q-6 -59 -87 -81q-25 -7 -31 -34h-33z" />
    <glyph glyph-name="glyph262" horiz-adv-x="541" 
d="M-31 588l151 185h82l151 -185h-80l-113 139l-113 -139h-78zM50 777l148 185h103l-184 -185h-67z" />
    <glyph glyph-name="glyph263" horiz-adv-x="541" 
d="M-31 588l151 185h82l151 -185h-80l-113 139l-113 -139h-78zM261 777l-184 185h103l148 -185h-67z" />
    <glyph glyph-name="glyph264" horiz-adv-x="541" 
d="M-31 588l151 185h82l151 -185h-80l-113 139l-113 -139h-78zM411 671q9 29 11 64q1 11 8 13q3 0 8 1q67 11 67 54q0 35 -28 35q-5 0 -14 -1t-14 -1q-21 0 -21 18q0 28 32 28q46 0 76 -25.5t26 -70.5q-6 -59 -87 -81q-25 -7 -31 -34h-33z" />
    <glyph glyph-name="glyph265" horiz-adv-x="541" 
d="M-31 588l151 185h82l151 -185h-80l-113 139l-113 -139h-78zM366 925v0h50q-2 -49 -37 -89.5t-80 -40.5q-36 0 -99 30.5t-92 30.5q-43 0 -58 -66h-50q2 49 37 89.5t80 40.5q37 0 100.5 -30.5t90.5 -30.5q43 0 58 66z" />
    <glyph glyph-name="glyph266" horiz-adv-x="541" 
d="M-26 763h52q14 -106 141 -106q116 0 142 106h49q-9 -83 -62 -126.5t-138 -43.5q-79 0 -127.5 45.5t-56.5 124.5zM129 777l148 185h103l-184 -185h-67z" />
    <glyph glyph-name="glyph267" horiz-adv-x="541" 
d="M-26 763h52q14 -106 141 -106q116 0 142 106h49q-9 -83 -62 -126.5t-138 -43.5q-79 0 -127.5 45.5t-56.5 124.5zM208 777l-184 185h103l148 -185h-67z" />
    <glyph glyph-name="glyph268" horiz-adv-x="541" 
d="M-26 763h52q14 -106 141 -106q116 0 142 106h49q-9 -83 -62 -126.5t-138 -43.5q-79 0 -127.5 45.5t-56.5 124.5zM306 671q9 29 11 64q1 11 8 13q3 0 8 1q67 11 67 54q0 35 -28 35q-5 0 -14 -1t-14 -1q-21 0 -21 18q0 28 32 28q46 0 76 -25.5t26 -70.5q-6 -59 -87 -81
q-25 -7 -31 -34h-33z" />
    <glyph glyph-name="glyph269" horiz-adv-x="541" 
d="M-26 763h52q14 -106 141 -106q116 0 142 106h49q-9 -83 -62 -126.5t-138 -43.5q-79 0 -127.5 45.5t-56.5 124.5zM366 925v0h50q-2 -49 -37 -89.5t-80 -40.5q-36 0 -99 30.5t-92 30.5q-43 0 -58 -66h-50q2 49 37 89.5t80 40.5q37 0 100.5 -30.5t90.5 -30.5q43 0 58 66z
" />
    <glyph glyph-name="glyph270" horiz-adv-x="249" 
 />
  </font>
</defs>
</svg>
